<?xml version="1.0" encoding="UTF-8" standalone="no"?>
<!-- Created with Inkscape (http://www.inkscape.org/) -->

<svg
   xmlns:dc="http://purl.org/dc/elements/1.1/"
   xmlns:cc="http://creativecommons.org/ns#"
   xmlns:rdf="http://www.w3.org/1999/02/22-rdf-syntax-ns#"
   xmlns:svg="http://www.w3.org/2000/svg"
   xmlns="http://www.w3.org/2000/svg"
   xmlns:xlink="http://www.w3.org/1999/xlink"
   xmlns:sodipodi="http://sodipodi.sourceforge.net/DTD/sodipodi-0.dtd"
   xmlns:inkscape="http://www.inkscape.org/namespaces/inkscape"
   width="328.6792mm"
   height="268.96109mm"
   viewBox="0 0 1164.6113 953.01174"
   id="svg2"
   version="1.1"
   inkscape:version="0.91 r13725"
   sodipodi:docname="Ciervo.svg"
   inkscape:export-filename="/home/usui/Imágenes/SVG/Deer.png"
   inkscape:export-xdpi="90"
   inkscape:export-ydpi="90">
  <defs
     id="defs4">
    <linearGradient
       inkscape:collect="always"
       id="linearGradient4749">
      <stop
         style="stop-color:#28207d;stop-opacity:1"
         offset="0"
         id="stop4751" />
      <stop
         style="stop-color:#0a042a;stop-opacity:1"
         offset="1"
         id="stop4753" />
    </linearGradient>
    <linearGradient
       id="linearGradient4741"
       inkscape:collect="always">
      <stop
         id="stop4743"
         offset="0"
         style="stop-color:#ffffff;stop-opacity:1;" />
      <stop
         style="stop-color:#ffffff;stop-opacity:0.68627453"
         offset="0.19933066"
         id="stop4747" />
      <stop
         id="stop4745"
         offset="1"
         style="stop-color:#ffffff;stop-opacity:0;" />
    </linearGradient>
    <linearGradient
       inkscape:collect="always"
       id="linearGradient4725">
      <stop
         style="stop-color:#ffffff;stop-opacity:1;"
         offset="0"
         id="stop4727" />
      <stop
         style="stop-color:#ffffff;stop-opacity:0;"
         offset="1"
         id="stop4729" />
    </linearGradient>
    <linearGradient
       inkscape:collect="always"
       id="nube-3">
      <stop
         style="stop-color:#003c68;stop-opacity:1"
         offset="0"
         id="stop4519" />
      <stop
         style="stop-color:#0a042a;stop-opacity:1"
         offset="1"
         id="stop4521" />
    </linearGradient>
    <radialGradient
       inkscape:collect="always"
       xlink:href="#nube-3"
       id="radialGradient4523"
       cx="43018.273"
       cy="-247785.75"
       fx="43018.273"
       fy="-247785.75"
       r="357.19"
       gradientTransform="matrix(0.92317703,0,-4.1918304e-8,0.70097932,3305.4491,-74061.13)"
       gradientUnits="userSpaceOnUse" />
    <radialGradient
       inkscape:collect="always"
       xlink:href="#nube-3"
       id="radialGradient4533"
       cx="43017.473"
       cy="-247922.34"
       fx="43017.473"
       fy="-247922.34"
       r="402.01651"
       gradientTransform="matrix(0.86365188,0,-7.511182e-8,0.72257746,5865.1284,-68724.272)"
       gradientUnits="userSpaceOnUse" />
    <filter
       inkscape:collect="always"
       style="color-interpolation-filters:sRGB"
       id="filter4577"
       x="-0.039153181"
       width="1.0783064"
       y="-0.12832646"
       height="1.256653">
      <feGaussianBlur
         inkscape:collect="always"
         stdDeviation="12.215075"
         id="feGaussianBlur4579" />
    </filter>
    <radialGradient
       inkscape:collect="always"
       xlink:href="#nube-3"
       id="radialGradient4587"
       cx="43013.211"
       cy="-247843.84"
       fx="43013.211"
       fy="-247843.84"
       r="375.58551"
       gradientTransform="matrix(0.94715138,0,0,0.55463228,2273.1847,-110421.52)"
       gradientUnits="userSpaceOnUse" />
    <filter
       inkscape:collect="always"
       style="color-interpolation-filters:sRGB"
       id="filter4625"
       x="-0.038764182"
       width="1.0775284"
       y="-0.13269068"
       height="1.2653815">
      <feGaussianBlur
         inkscape:collect="always"
         stdDeviation="14.300738"
         id="feGaussianBlur4627" />
    </filter>
    <linearGradient
       inkscape:collect="always"
       xlink:href="#linearGradient4741"
       id="linearGradient4731"
       x1="42822.402"
       y1="-248197.06"
       x2="42972.117"
       y2="-248196.95"
       gradientUnits="userSpaceOnUse"
       gradientTransform="matrix(1.5452341,0,0,1.1448434,-25638.163,532635.54)" />
    <linearGradient
       inkscape:collect="always"
       xlink:href="#linearGradient4725"
       id="linearGradient4735"
       gradientUnits="userSpaceOnUse"
       gradientTransform="matrix(0.89542118,0,0,0.66340565,2388.4191,413113.57)"
       x1="42822.402"
       y1="-248197.06"
       x2="42972.117"
       y2="-248196.95" />
    <linearGradient
       inkscape:collect="always"
       xlink:href="#linearGradient4725"
       id="linearGradient4739"
       gradientUnits="userSpaceOnUse"
       gradientTransform="matrix(1.4095011,0,0,1.0442806,-19788.754,507598.54)"
       x1="42822.402"
       y1="-248197.06"
       x2="42972.117"
       y2="-248196.95" />
    <radialGradient
       inkscape:collect="always"
       xlink:href="#linearGradient4749"
       id="radialGradient4755"
       cx="456.31927"
       cy="191.3351"
       fx="456.31927"
       fy="191.3351"
       r="582.30566"
       gradientTransform="matrix(1.0472535,0,0,0.85697665,-21.263507,45.804647)"
       gradientUnits="userSpaceOnUse" />
    <filter
       inkscape:collect="always"
       style="color-interpolation-filters:sRGB"
       id="filter5004"
       x="-0.023880254"
       width="1.0477605"
       y="-0.024120953"
       height="1.0482419">
      <feGaussianBlur
         inkscape:collect="always"
         stdDeviation="3.9203028"
         id="feGaussianBlur5006" />
    </filter>
  </defs>
  <sodipodi:namedview
     id="base"
     pagecolor="#ffffff"
     bordercolor="#666666"
     borderopacity="1.0"
     inkscape:pageopacity="0.0"
     inkscape:pageshadow="2"
     inkscape:zoom="0.32"
     inkscape:cx="306.34923"
     inkscape:cy="605.94541"
     inkscape:document-units="px"
     inkscape:current-layer="layer2"
     showgrid="false"
     showguides="true"
     inkscape:guide-bbox="true"
     showborder="true"
     inkscape:window-width="1337"
     inkscape:window-height="710"
     inkscape:window-x="19"
     inkscape:window-y="3"
     inkscape:window-maximized="0"
     inkscape:object-paths="false"
     inkscape:snap-intersection-paths="false"
     inkscape:object-nodes="false"
     inkscape:snap-smooth-nodes="false"
     borderlayer="true"
     fit-margin-top="0"
     fit-margin-left="0"
     fit-margin-right="0"
     fit-margin-bottom="0">
    <sodipodi:guide
       position="-22464.38,-238233.72"
       orientation="0,1"
       id="guide4272" />
    <sodipodi:guide
       position="-43370.856,-253285.17"
       orientation="0,1"
       id="guide4274" />
  </sodipodi:namedview>
  <metadata
     id="metadata7">
    <rdf:RDF>
      <cc:Work
         rdf:about="">
        <dc:format>image/svg+xml</dc:format>
        <dc:type
           rdf:resource="http://purl.org/dc/dcmitype/StillImage" />
        <dc:title></dc:title>
      </cc:Work>
    </rdf:RDF>
  </metadata>
  <g
     inkscape:groupmode="layer"
     id="layer2"
     inkscape:label="ciervo"
     transform="translate(-42429.34,248369.41)"
     style="display:inline"
     sodipodi:insensitive="true">
    <rect
       style="color:#000000;clip-rule:nonzero;display:inline;overflow:visible;visibility:visible;opacity:1;isolation:auto;mix-blend-mode:normal;color-interpolation:sRGB;color-interpolation-filters:linearRGB;solid-color:#000000;solid-opacity:1;fill:#0a042a;fill-opacity:1;fill-rule:nonzero;stroke:#000000;stroke-width:0.89004642;stroke-linecap:round;stroke-linejoin:round;stroke-miterlimit:4;stroke-dasharray:none;stroke-dashoffset:0;stroke-opacity:1;color-rendering:auto;image-rendering:auto;shape-rendering:auto;text-rendering:auto;enable-background:accumulate"
       id="rect4720"
       width="1036.5581"
       height="848.22412"
       x="42493.367"
       y="-248317.02" />
    <path
       style="color:#000000;clip-rule:nonzero;display:inline;overflow:visible;visibility:visible;opacity:1;isolation:auto;mix-blend-mode:normal;color-interpolation:sRGB;color-interpolation-filters:linearRGB;solid-color:#000000;solid-opacity:1;fill:url(#radialGradient4587);fill-opacity:1;fill-rule:nonzero;stroke:none;stroke-width:1;stroke-linecap:round;stroke-linejoin:round;stroke-miterlimit:4;stroke-dasharray:none;stroke-dashoffset:0;stroke-opacity:1;color-rendering:auto;image-rendering:auto;shape-rendering:auto;text-rendering:auto;enable-background:accumulate"
       d="m 43167.271,-248029.54 a 54.6476,49.578752 0 0 0 -53.526,39.61 52.271617,47.423154 0 0 0 -9.438,-0.81 52.271617,47.423154 0 0 0 -51.238,38.04 33.263757,30.178371 0 0 0 -4.598,-0.32 33.263757,30.178371 0 0 0 -11.258,1.81 58.211574,52.812149 0 0 0 -52.893,-30.91 58.211574,52.812149 0 0 0 -55.09,35.91 55.835591,50.656551 0 0 0 -45.889,-21.9 55.835591,50.656551 0 0 0 -9.092,0.7 67.715504,61.434541 0 0 0 -65.752,-47.05 67.715504,61.434541 0 0 0 -60.198,33.44 42.767686,38.800762 0 0 0 -9.893,-1.1 42.767686,38.800762 0 0 0 -42.041,31.85 33.263757,30.178371 0 0 0 -13.795,-2.75 33.263757,30.178371 0 0 0 -33.264,30.18 33.263757,30.178371 0 0 0 2.209,10.79 c -29.723,0.57 -53.464,22.45 -53.464,49.57 0,27.46 24.373,49.57 54.647,49.57 l 351.991,0 c 2.357,0 4.679,-0.13 6.956,-0.39 2.276,0.26 4.597,0.39 6.954,0.39 l 351.991,0 c 30.276,0 54.648,-22.11 54.648,-49.57 0,-23.5 -17.835,-43.07 -41.94,-48.25 a 58.211574,52.812149 0 0 0 -58.024,-48.76 58.211574,52.812149 0 0 0 -42.95,17.26 65.339521,59.278943 0 0 0 -56.842,-30.19 65.339521,59.278943 0 0 0 -4.292,0.13 54.6476,49.578752 0 0 0 0.729,-7.68 54.6476,49.578752 0 0 0 -54.648,-49.57 z"
       id="circle4428"
       inkscape:connector-curvature="0" />
    <path
       inkscape:connector-curvature="0"
       id="path4589"
       d="m 43318.747,-247942.54 a 67.715504,61.434541 0 0 0 -46.603,16.9 54.6476,49.578752 0 0 0 -28.241,-7.21 54.6476,49.578752 0 0 0 -51.673,33.6 67.715504,61.434541 0 0 0 -4.162,-0.19 67.715504,61.434541 0 0 0 -66.09,48.25 33.263757,30.178371 0 0 0 -7.566,-0.82 33.263757,30.178371 0 0 0 -33.264,30.17 33.263757,30.178371 0 0 0 0.62,5.69 52.271617,47.423154 0 0 0 -37.522,19.99 41.579695,37.722964 0 0 0 -8.837,-0.88 41.579695,37.722964 0 0 0 -15.041,2.55 41.579695,37.722964 0 0 0 -40.794,-30.58 41.579695,37.722964 0 0 0 -3.926,0.2 58.211574,52.812149 0 0 0 -44.187,-18.52 58.211574,52.812149 0 0 0 -4.822,0.21 55.835591,50.656551 0 0 0 0.07,-1.29 55.835591,50.656551 0 0 0 -55.836,-50.66 55.835591,50.656551 0 0 0 -8.476,0.63 67.715504,61.434541 0 0 0 -65.18,-44.82 67.715504,61.434541 0 0 0 -58.417,30.49 42.767686,38.800762 0 0 0 -37.81,38.5 42.767686,38.800762 0 0 0 4.564,17.41 42.767686,38.800762 0 0 0 -38.29,31.68 33.263757,30.178371 0 0 0 -13.795,-2.75 33.263757,30.178371 0 0 0 -33.264,30.17 33.263757,30.178371 0 0 0 2.209,10.79 c -29.723,0.57 -53.464,22.46 -53.464,49.58 0,27.46 24.373,49.57 54.647,49.57 l 351.991,0 424.113,0 c 30.275,0 54.648,-22.11 54.648,-49.57 0,-21.96 -15.576,-40.49 -37.289,-47.05 a 65.339521,59.278943 0 0 0 7.414,-27.32 65.339521,59.278943 0 0 0 -41.095,-55 67.715504,61.434541 0 0 0 3.08,-18.29 67.715504,61.434541 0 0 0 -67.715,-61.43 z"
       style="color:#000000;clip-rule:nonzero;display:inline;overflow:visible;visibility:visible;opacity:1;isolation:auto;mix-blend-mode:normal;color-interpolation:sRGB;color-interpolation-filters:linearRGB;solid-color:#000000;solid-opacity:1;fill:#0a042a;fill-opacity:1;fill-rule:nonzero;stroke:none;stroke-width:1;stroke-linecap:round;stroke-linejoin:round;stroke-miterlimit:4;stroke-dasharray:none;stroke-dashoffset:0;stroke-opacity:1;filter:url(#filter4625);color-rendering:auto;image-rendering:auto;shape-rendering:auto;text-rendering:auto;enable-background:accumulate" />
    <path
       style="color:#000000;clip-rule:nonzero;display:inline;overflow:visible;visibility:visible;opacity:1;isolation:auto;mix-blend-mode:normal;color-interpolation:sRGB;color-interpolation-filters:linearRGB;solid-color:#000000;solid-opacity:1;fill:url(#radialGradient4533);fill-opacity:1;fill-rule:nonzero;stroke:none;stroke-width:1;stroke-linecap:round;stroke-linejoin:round;stroke-miterlimit:4;stroke-dasharray:none;stroke-dashoffset:0;stroke-opacity:1;color-rendering:auto;image-rendering:auto;shape-rendering:auto;text-rendering:auto;enable-background:accumulate"
       d="m 43318.747,-247922.54 a 67.715504,61.434541 0 0 0 -46.603,16.9 54.6476,49.578752 0 0 0 -28.241,-7.21 54.6476,49.578752 0 0 0 -51.673,33.6 67.715504,61.434541 0 0 0 -4.162,-0.19 67.715504,61.434541 0 0 0 -66.09,48.25 33.263757,30.178371 0 0 0 -7.566,-0.82 33.263757,30.178371 0 0 0 -33.264,30.17 33.263757,30.178371 0 0 0 0.62,5.69 52.271617,47.423154 0 0 0 -37.522,19.99 41.579695,37.722964 0 0 0 -8.837,-0.88 41.579695,37.722964 0 0 0 -15.041,2.55 41.579695,37.722964 0 0 0 -40.794,-30.58 41.579695,37.722964 0 0 0 -3.926,0.2 58.211574,52.812149 0 0 0 -44.187,-18.52 58.211574,52.812149 0 0 0 -4.822,0.21 55.835591,50.656551 0 0 0 0.07,-1.29 55.835591,50.656551 0 0 0 -55.836,-50.66 55.835591,50.656551 0 0 0 -8.476,0.63 67.715504,61.434541 0 0 0 -65.18,-44.82 67.715504,61.434541 0 0 0 -58.417,30.49 42.767686,38.800762 0 0 0 -37.81,38.5 42.767686,38.800762 0 0 0 4.564,17.41 42.767686,38.800762 0 0 0 -38.29,31.68 33.263757,30.178371 0 0 0 -13.795,-2.75 33.263757,30.178371 0 0 0 -33.264,30.17 33.263757,30.178371 0 0 0 2.209,10.79 c -29.723,0.57 -53.464,22.46 -53.464,49.58 0,27.46 24.373,49.57 54.647,49.57 l 351.991,0 424.113,0 c 30.275,0 54.648,-22.11 54.648,-49.57 0,-21.96 -15.576,-40.49 -37.289,-47.05 a 65.339521,59.278943 0 0 0 7.414,-27.32 65.339521,59.278943 0 0 0 -41.095,-55 67.715504,61.434541 0 0 0 3.08,-18.29 67.715504,61.434541 0 0 0 -67.715,-61.43 z"
       id="path4360"
       inkscape:connector-curvature="0" />
    <path
       inkscape:connector-curvature="0"
       id="path4537"
       d="m 43195.53,-247828.76 a 61.294733,61.294733 0 0 0 -42.431,17.14 30.109693,30.109693 0 0 0 -21.514,-9.07 30.109693,30.109693 0 0 0 -30.109,30.09 30.109693,30.109693 0 0 0 4.655,16.02 38.712462,38.712462 0 0 0 -28.605,22.64 50.541271,50.541271 0 0 0 -24.26,-6.26 50.541271,50.541271 0 0 0 -47.991,34.89 30.109693,30.109693 0 0 0 -26.965,-16.78 30.109693,30.109693 0 0 0 -4.161,0.31 47.315232,47.315232 0 0 0 -46.38,-37.96 47.315232,47.315232 0 0 0 -8.543,0.81 49.465924,49.465924 0 0 0 -48.451,-39.52 49.465924,49.465924 0 0 0 -44.183,27.25 52.691962,52.691962 0 0 0 -18.506,10.77 59.14404,59.14404 0 0 0 -38.668,-14.49 59.14404,59.14404 0 0 0 -58.283,49.1 52.691962,52.691962 0 0 0 -35.903,45.91 c -21.82,5.17 -37.965,24.7 -37.965,48.14 0,27.4 22.062,49.46 49.466,49.46 l 318.616,0 c 2.133,0 4.234,-0.13 6.296,-0.38 2.061,0.25 4.162,0.38 6.295,0.38 l 318.615,0 c 27.406,0 49.468,-22.06 49.468,-49.46 0,-27.05 -21.49,-48.89 -48.395,-49.46 a 30.109693,30.109693 0 0 0 1.997,-10.76 30.109693,30.109693 0 0 0 -30.109,-30.1 30.109693,30.109693 0 0 0 -12.485,2.73 38.712462,38.712462 0 0 0 -38.056,-31.78 38.712462,38.712462 0 0 0 -2.229,0.12 61.294733,61.294733 0 0 0 -61.216,-59.73 z"
       style="color:#000000;clip-rule:nonzero;display:inline;overflow:visible;visibility:visible;opacity:1;isolation:auto;mix-blend-mode:normal;color-interpolation:sRGB;color-interpolation-filters:linearRGB;solid-color:#000000;solid-opacity:1;fill:#0a042a;fill-opacity:1;fill-rule:nonzero;stroke:none;stroke-width:1;stroke-linecap:round;stroke-linejoin:round;stroke-miterlimit:4;stroke-dasharray:none;stroke-dashoffset:0;stroke-opacity:1;filter:url(#filter4577);color-rendering:auto;image-rendering:auto;shape-rendering:auto;text-rendering:auto;enable-background:accumulate"
       transform="matrix(1.1011968,0,0,0.99905509,-4352.6403,-234.14888)" />
    <path
       style="color:#000000;clip-rule:nonzero;display:inline;overflow:visible;visibility:visible;opacity:1;isolation:auto;mix-blend-mode:normal;color-interpolation:sRGB;color-interpolation-filters:linearRGB;solid-color:#000000;solid-opacity:1;fill:url(#radialGradient4523);fill-opacity:1;fill-rule:nonzero;stroke:none;stroke-width:1;stroke-linecap:round;stroke-linejoin:round;stroke-miterlimit:4;stroke-dasharray:none;stroke-dashoffset:0;stroke-opacity:1;color-rendering:auto;image-rendering:auto;shape-rendering:auto;text-rendering:auto;enable-background:accumulate"
       d="m 43204.842,-247807.51 a 64.398781,58.425461 0 0 0 -44.579,16.35 31.634489,28.700226 0 0 0 -22.604,-8.66 31.634489,28.700226 0 0 0 -31.634,28.69 31.634489,28.700226 0 0 0 4.891,15.27 40.672914,36.900291 0 0 0 -30.054,21.58 53.100749,48.17538 0 0 0 -25.488,-5.97 53.100749,48.17538 0 0 0 -50.422,33.26 31.634489,28.700226 0 0 0 -28.331,-16 31.634489,28.700226 0 0 0 -4.371,0.3 49.711339,45.100355 0 0 0 -48.728,-36.19 49.711339,45.100355 0 0 0 -8.976,0.77 51.970945,47.150371 0 0 0 -50.905,-37.66 51.970945,47.150371 0 0 0 -46.42,25.97 55.360354,50.225395 0 0 0 -19.444,10.27 62.139174,56.375444 0 0 0 -40.625,-13.81 62.139174,56.375444 0 0 0 -61.236,46.79 55.360354,50.225395 0 0 0 -37.72,43.77 c -22.926,4.93 -39.887,23.54 -39.887,45.89 0,26.11 23.179,47.14 51.97,47.14 l 334.751,0 c 2.241,0 4.449,-0.13 6.615,-0.37 2.165,0.24 4.373,0.37 6.614,0.37 l 334.75,0 c 28.793,0 51.972,-21.03 51.972,-47.14 0,-25.79 -22.577,-46.61 -50.845,-47.15 a 31.634489,28.700226 0 0 0 2.099,-10.26 31.634489,28.700226 0 0 0 -31.634,-28.69 31.634489,28.700226 0 0 0 -13.118,2.61 40.672914,36.900291 0 0 0 -39.983,-30.29 40.672914,36.900291 0 0 0 -2.341,0.11 64.398781,58.425461 0 0 0 -64.317,-56.94 z"
       id="circle4402"
       inkscape:connector-curvature="0" />
    <ellipse
       style="color:#000000;clip-rule:nonzero;display:inline;overflow:visible;visibility:visible;opacity:1;isolation:auto;mix-blend-mode:normal;color-interpolation:sRGB;color-interpolation-filters:linearRGB;solid-color:#000000;solid-opacity:1;fill:#0a042a;fill-opacity:1;fill-rule:nonzero;stroke:none;stroke-width:1;stroke-linecap:round;stroke-linejoin:round;stroke-miterlimit:4;stroke-dasharray:none;stroke-dashoffset:0;stroke-opacity:1;color-rendering:auto;image-rendering:auto;shape-rendering:auto;text-rendering:auto;enable-background:accumulate"
       id="path4220"
       cx="43002.371"
       cy="-247537.89"
       rx="437.33221"
       ry="70.741348" />
    <circle
       style="color:#000000;clip-rule:nonzero;display:inline;overflow:visible;visibility:visible;opacity:1;isolation:auto;mix-blend-mode:normal;color-interpolation:sRGB;color-interpolation-filters:linearRGB;solid-color:#000000;solid-opacity:1;fill:#ffffff;fill-opacity:0.11627909;fill-rule:nonzero;stroke:none;stroke-width:1;stroke-linecap:round;stroke-linejoin:round;stroke-miterlimit:4;stroke-dasharray:none;stroke-dashoffset:0;stroke-opacity:1;color-rendering:auto;image-rendering:auto;shape-rendering:auto;text-rendering:auto;enable-background:accumulate"
       id="circle4260"
       cx="43012.703"
       cy="-247890.8"
       r="196.99738" />
    <circle
       style="color:#000000;clip-rule:nonzero;display:inline;overflow:visible;visibility:visible;opacity:1;isolation:auto;mix-blend-mode:normal;color-interpolation:sRGB;color-interpolation-filters:linearRGB;solid-color:#000000;solid-opacity:1;fill:#ffffff;fill-opacity:0.11764706;fill-rule:nonzero;stroke:none;stroke-width:1;stroke-linecap:round;stroke-linejoin:round;stroke-miterlimit:4;stroke-dasharray:none;stroke-dashoffset:0;stroke-opacity:1;color-rendering:auto;image-rendering:auto;shape-rendering:auto;text-rendering:auto;enable-background:accumulate"
       id="circle4244"
       cx="43011.645"
       cy="-247892.91"
       r="168.26704" />
    <path
       style="fill:#0a042a;fill-opacity:1;fill-rule:evenodd;stroke:none;stroke-width:1px;stroke-linecap:butt;stroke-linejoin:miter;stroke-opacity:1"
       d="m 43081.993,-247768.01 c -0.138,0 -0.322,0 -0.403,0.15 -0.151,0.23 -0.04,0.54 0.01,0.81 0.1,0.47 0.401,0.88 0.537,1.34 0.166,0.56 0.269,1.14 0.336,1.72 0.05,0.47 0.05,0.95 0.05,1.44 0,0.4 -0.01,0.81 -0.02,1.22 0,0.47 0.01,0.96 -0.05,1.43 -0.03,0.23 -0.07,0.49 -0.184,0.71 -0.138,0.29 -0.333,0.54 -0.571,0.75 -0.216,0.2 -0.468,0.4 -0.753,0.45 -0.295,0 -0.609,0 -0.889,-0.13 -0.2,-0.11 -0.4,-0.19 -0.537,-0.36 -0.177,-0.21 -0.216,-0.51 -0.318,-0.77 -0.158,-0.4 -0.297,-0.81 -0.453,-1.21 -0.163,-0.42 -0.311,-0.85 -0.503,-1.25 -0.164,-0.36 -0.364,-0.69 -0.552,-1.02 -0.192,-0.34 -0.248,-0.83 -0.588,-1.02 -0.169,-0.11 -0.454,-0.14 -0.586,0 -0.173,0.18 0.02,0.52 0.06,0.76 0.08,0.44 0.238,0.86 0.351,1.29 0.168,0.63 0.403,1.25 0.487,1.91 0.07,0.56 0.01,1.14 0.01,1.72 0,1.01 0.111,2.03 -0.07,3.02 -0.127,0.71 0,1.93 -0.703,2.05 -0.362,0.1 -0.466,-0.57 -0.672,-0.88 -0.284,-0.41 -0.526,-0.86 -0.771,-1.31 -0.248,-0.44 -0.467,-0.9 -0.703,-1.37 -0.233,-0.45 -0.464,-0.9 -0.706,-1.34 -0.228,-0.41 -0.464,-0.83 -0.704,-1.24 -0.241,-0.42 -0.402,-0.9 -0.736,-1.24 -0.157,-0.16 -0.355,-0.44 -0.571,-0.37 -0.187,0 -0.2,0.35 -0.234,0.54 -0.07,0.35 0,0.71 0.07,1.07 0.114,0.57 0.35,1.1 0.569,1.64 0.227,0.54 0.529,1.06 0.773,1.61 0.225,0.51 0.433,1.03 0.637,1.55 0.175,0.44 0.289,0.9 0.503,1.34 0.195,0.38 0.479,0.73 0.704,1.1 0.21,0.36 0.471,0.69 0.602,1.08 0.1,0.29 0.131,0.61 0.134,0.92 0,0.32 -0.05,0.63 -0.112,0.94 -0.114,0.59 -0.262,1.18 -0.474,1.75 -0.215,0.58 -0.563,1.1 -0.805,1.66 -0.232,0.54 -0.388,1.11 -0.617,1.66 -0.259,0.61 -0.491,1.25 -0.853,1.8 -0.317,0.49 -0.768,0.88 -1.138,1.32 -0.422,0.52 -0.755,1.12 -1.233,1.57 -0.311,0.31 -0.659,0.96 -1.043,0.77 -0.285,-0.14 0.03,-0.65 0,-0.96 -0.04,-0.36 -0.05,-0.76 -0.237,-1.09 -0.118,-0.2 -0.299,-0.55 -0.521,-0.48 -0.213,0.11 -0.08,0.44 -0.1,0.67 -0.02,0.3 0.05,0.61 0,0.9 -0.07,0.33 -0.235,0.64 -0.378,0.96 -0.17,0.37 -0.329,0.75 -0.57,1.08 -0.291,0.4 -0.679,0.72 -1.042,1.05 -0.273,0.25 -0.565,0.48 -0.855,0.71 -0.654,0.51 -1.3,1.05 -1.991,1.51 -0.565,0.38 -1.168,0.7 -1.754,1.04 -0.489,0.3 -0.938,0.67 -1.47,0.86 -0.347,0.13 -0.722,0.16 -1.091,0.2 l -1.044,0 c -0.27,0 -0.604,0.11 -0.805,-0.11 -0.154,-0.14 -0.09,-0.41 -0.142,-0.61 -0.07,-0.23 -0.205,-0.43 -0.237,-0.67 -0.08,-0.5 0.06,-1.01 0.1,-1.51 0.03,-0.4 0.09,-0.8 0.1,-1.2 0.02,-0.85 -0.08,-1.7 -0.1,-2.56 -0.01,-0.74 -0.03,-1.48 0,-2.22 0.02,-0.57 0.142,-1.7 0.142,-1.7 0,0 0.08,-1.33 -0.04,-1.74 -0.118,-0.41 -0.269,-0.51 -0.569,-0.55 -0.298,0 -0.32,0.11 -0.473,0.35 -0.154,0.24 -0.131,0.83 -0.179,1.17 -0.04,0.33 -0.107,0.83 -0.107,0.83 0,0 -0.06,0.72 -0.1,1.07 -0.02,0.25 -0.03,0.49 -0.04,0.73 -0.03,0.58 -0.1,1.18 -0.107,1.75 -0.02,0.83 0.08,1.68 0.02,2.5 -0.02,0.29 -0.07,0.55 -0.117,0.82 -0.09,0.48 -0.196,0.97 -0.322,1.43 -0.11,0.42 -0.22,0.85 -0.378,1.24 -0.167,0.42 -0.409,0.8 -0.594,1.22 -0.178,0.39 -0.254,0.85 -0.498,1.22 -0.333,0.48 -0.832,0.85 -1.28,1.25 -0.227,0.2 -0.456,0.41 -0.71,0.57 -0.373,0.24 -0.784,0.41 -1.186,0.6 -0.419,0.19 -0.844,0.38 -1.281,0.51 -0.418,0.14 -0.844,0.27 -1.279,0.34 -0.822,0.13 -1.66,0.14 -2.491,0.11 -0.437,0 -0.872,0 -1.303,-0.11 -0.2,0 -0.394,-0.11 -0.592,-0.12 -0.495,-0.11 -1.024,0.11 -1.494,-0.11 -0.223,-0.11 -0.41,-0.24 -0.579,-0.41 l 0,0.1 c -0.59,-0.59 -0.971,-1.34 -1.47,-2 -0.497,-0.65 -1.03,-1.28 -1.516,-1.94 -0.445,-0.6 -0.894,-1.21 -1.281,-1.84 -0.389,-0.65 -0.824,-1.28 -1.045,-2 -0.246,-0.81 -0.188,-1.67 -0.284,-2.51 -0.07,-0.7 -0.137,-1.4 -0.237,-2.09 -0.156,-1.08 0.07,-1.84 -0.188,-2.85 -0.08,-0.3 -0.794,-0.27 -0.879,0 -0.215,0.78 -0.24,3.35 -0.307,4.11 -0.08,0.92 -0.144,1.84 0,2.75 0.152,0.95 0.503,1.88 0.9,2.76 0.384,0.84 1.921,1.62 1.423,2.41 -0.6,0.96 -2.261,-0.1 -3.367,-0.29 -1.022,-0.19 -2.046,-0.46 -2.987,-0.9 -0.824,-0.39 -1.546,-0.97 -2.276,-1.51 -0.594,-0.44 -1.247,-0.85 -1.707,-1.43 -0.459,-0.58 -0.741,-1.28 -0.995,-1.99 -0.257,-0.69 -0.307,-1.21 -0.489,-2.02 -0.03,-0.18 -0.148,-0.61 -0.318,-0.59 -0.26,0 -0.359,0.17 -0.38,0.44 -0.06,0.75 -0.113,1.48 0,2.26 0.05,0.39 0.439,1.12 0.09,1.28 -1.011,0.47 -2.297,-2.25 -3.012,-3.1 -0.989,-1.19 -1.213,-1.72 -2.109,-2.96 -0.806,-1.13 -1.625,-2.27 -2.134,-3.56 -0.382,-0.96 -0.526,-2 -0.663,-3.03 -0.252,-1.88 -0.31,-3.79 -0.285,-5.69 0.02,-2.1 -0.03,-4.24 0.474,-6.27 0.286,-1.14 0.831,-2.21 1.422,-3.21 0.308,-0.53 0.749,-0.95 1.091,-1.46 0.219,-0.31 0.879,-0.7 0.616,-1 -0.255,-0.27 -0.706,0.3 -1.019,0.51 -0.379,0.26 -0.499,0.56 -0.782,0.92 -0.185,0.24 -0.372,0.9 -0.664,0.81 -0.397,-0.11 0,-0.82 0.08,-1.24 0.08,-0.49 0.354,-0.95 0.402,-1.44 0.03,-0.33 0.24,-0.89 -0.07,-0.97 -0.511,-0.12 -0.588,0.88 -0.806,1.35 -0.292,0.64 -0.423,1.34 -0.664,1.99 -0.3,0.82 -0.88,1.81 -1.21,2.62 -0.606,1.49 -1.23,2.69 -1.612,4.25 -0.306,1.25 -0.259,2.56 -0.331,3.85 -0.1,1.75 -0.143,5.27 -0.143,5.27 0,0 -0.786,-0.48 -0.996,-0.86 -0.656,-1.21 -0.215,-2.75 -0.569,-4.08 -0.07,-0.24 -0.03,-0.72 -0.283,-0.71 -0.693,0 -0.535,1.3 -0.617,1.99 -0.119,1 0.189,2.99 0.189,2.99 0,0 -1.785,-1.31 -2.56,-2.09 -0.695,-0.71 -1.404,-1.44 -1.849,-2.32 -0.331,-0.65 -0.453,-1.41 -0.569,-2.13 -0.177,-1.12 -0.187,-2.25 -0.19,-3.37 0,-0.94 0.05,-1.87 0.142,-2.81 0.1,-0.98 0.365,-2.18 0.41,-2.94 0.01,-0.21 -0.447,-0.39 -0.57,-0.23 -0.309,0.41 -0.45,1.29 -0.641,1.94 -0.306,1.05 -0.596,2.1 -0.806,3.18 -0.266,1.36 -0.602,2.73 -0.568,4.13 0.02,1.03 0.174,2.08 0.568,3.04 0.482,1.17 1.369,2.12 2.134,3.12 0.532,0.7 1.09,1.37 1.707,1.99 0.973,0.98 2.447,1.51 3.129,2.71 0.31,0.55 0.119,1.25 0.332,1.84 0.261,0.72 0.724,1.35 1.138,2 0.41,0.63 0.842,1.26 1.328,1.84 0.569,0.68 1.188,1.31 1.849,1.9 0.758,0.68 1.585,1.27 2.419,1.85 0.751,0.53 1.526,1.01 2.323,1.47 0.893,0.5 1.823,0.94 2.75,1.38 1.08,0.52 2.181,0.97 3.273,1.47 1.406,0.64 2.759,1.4 4.22,1.89 0.799,0.27 1.644,0.38 2.465,0.57 0.917,0.21 1.887,0.24 2.75,0.62 0.876,0.38 1.91,0.78 2.371,1.61 0.198,0.37 0.338,0.95 0.04,1.24 -0.398,0.38 -1.137,0.1 -1.661,-0.11 -0.998,-0.34 -1.703,-1.26 -2.607,-1.8 -0.84,-0.51 -1.727,-0.94 -2.608,-1.38 -1.623,-0.8 -3.133,-2.07 -4.931,-2.27 -0.48,-0.11 -1.099,-0.11 -1.422,0.29 -0.222,0.24 -0.127,0.65 -0.1,0.98 0.1,1.1 0.46,2.18 0.901,3.18 0.498,1.14 1.21,2.18 1.944,3.18 0.542,0.75 1.06,1.55 1.802,2.09 0.722,0.52 1.603,0.81 2.466,1.04 0.662,0.17 1.426,-0.1 2.039,0.23 1.493,0.75 3.095,1.99 3.461,3.61 0.12,0.54 -0.305,1.05 -0.518,1.56 -0.387,0.91 -0.944,1.75 -1.375,2.64 -0.465,0.97 -0.85,1.98 -1.308,2.96 -0.341,0.71 -0.67,1.44 -1.072,2.14 -0.571,0.99 -1.169,1.98 -1.891,2.86 -0.443,0.55 -0.889,1.13 -1.484,1.5 -0.541,0.34 -1.19,0.46 -1.811,0.61 -0.998,0.24 -2.033,0.29 -3.05,0.42 -1.006,0.14 -2.012,0.27 -3.019,0.38 -0.748,0.11 -1.504,0.14 -2.247,0.27 -0.53,0.11 -1.038,0.31 -1.575,0.37 -0.823,0.1 -1.653,-0.11 -2.481,-0.11 l -1.944,0 c -0.616,0 -1.23,0.11 -1.845,0.13 -0.637,0 -1.274,0.1 -1.911,0.14 -0.603,0 -1.218,0 -1.81,0.11 -0.36,0.1 -0.679,0.3 -1.04,0.37 -0.997,0.21 -2.048,0 -3.051,0.22 -0.688,0.14 -1.339,0.41 -2.011,0.62 -0.536,0.16 -1.066,0.33 -1.61,0.46 -0.576,0.14 -1.155,0.27 -1.743,0.34 -0.645,0.11 -1.296,0.11 -1.946,0.11 -0.537,0 -1.073,-0.11 -1.609,-0.11 -0.402,0 -0.807,0 -1.207,-0.11 -0.765,-0.1 -1.533,-0.19 -2.28,-0.39 -0.664,-0.18 -1.287,-0.47 -1.944,-0.68 -0.575,-0.17 -1.154,-0.34 -1.744,-0.46 -0.664,-0.12 -1.342,-0.17 -2.011,-0.27 -0.717,-0.1 -1.43,-0.23 -2.146,-0.34 -0.982,-0.14 -1.965,-0.29 -2.951,-0.4 -1.292,-0.14 -2.594,-0.2 -3.889,-0.33 -0.828,-0.1 -1.65,-0.25 -2.481,-0.26 -0.694,0 -1.386,0.1 -2.079,0.1 -0.872,0 -1.75,0 -2.616,0.13 -0.859,0.1 -1.78,0.1 -2.548,0.47 -0.662,0.34 -1.069,1.03 -1.61,1.55 -0.332,0.31 -0.649,0.64 -1.005,0.93 -0.615,0.49 -1.318,0.86 -1.946,1.34 -0.417,0.32 -0.783,0.69 -1.206,1 -0.342,0.25 -0.789,0.38 -1.073,0.69 -0.402,0.43 -0.412,1.15 -0.805,1.6 -0.409,0.48 -1.015,0.73 -1.541,1.08 -0.876,0.57 -1.835,0.99 -2.683,1.61 -0.642,0.46 -1.202,1.03 -1.811,1.53 -0.687,0.57 -1.532,0.98 -2.079,1.68 -0.525,0.68 -0.801,1.52 -1.072,2.34 -0.202,0.62 -0.407,1.24 -0.402,1.88 0,0.6 0.405,1.15 0.402,1.75 0,0.57 -0.356,1.11 -0.402,1.67 -0.124,1.53 0.179,3.05 0.334,4.57 0.108,1.02 0.243,2.05 0.402,3.08 0.155,0.99 0.339,1.98 0.537,2.96 0.122,0.59 0.297,1.19 0.402,1.8 0.109,0.62 0.146,1.25 0.236,1.88 0.07,0.41 0.177,0.82 0.2,1.24 0.02,0.44 0,0.88 -0.07,1.3 -0.07,0.46 -0.21,0.9 -0.301,1.35 -0.169,0.83 -0.342,1.65 -0.456,2.48 -0.117,0.86 -0.04,1.73 -0.238,2.57 -0.191,0.84 -0.596,1.62 -0.9,2.41 -0.296,0.78 -0.575,1.57 -0.901,2.34 -0.293,0.68 -0.573,1.39 -0.949,2.03 -0.357,0.63 -0.809,1.17 -1.232,1.75 -0.508,0.69 -1.011,1.38 -1.565,2.04 -0.449,0.53 -0.95,1.01 -1.422,1.53 -0.35,0.37 -0.829,0.66 -1.044,1.13 -0.321,0.7 -0.232,1.51 -0.285,2.28 -0.07,0.99 -0.08,1.98 -0.04,2.98 0.02,0.82 0.243,1.62 0.19,2.42 -0.03,0.54 -0.219,1.05 -0.332,1.57 -0.124,0.57 0,1.27 -0.379,1.71 -0.233,0.27 -0.794,0.1 -0.996,0.37 -0.288,0.42 0,1.02 0,1.53 0,1.08 0.123,2.17 0.04,3.26 -0.03,0.49 -0.189,0.97 -0.237,1.47 -0.128,1.31 0.03,2.64 -0.142,3.93 -0.148,1.13 -0.477,2.23 -0.759,3.33 -0.33,1.29 -0.92,2.53 -1.09,3.84 -0.1,0.72 -0.04,1.46 0.04,2.18 0.08,0.7 0.433,1.37 0.475,2.08 0.03,0.6 -0.111,1.2 -0.19,1.81 -0.212,1.6 -1.796,3.55 -0.759,4.79 1.013,1.21 3.726,1.32 4.742,0.1 0.727,-0.86 -0.617,-2.19 -0.664,-3.32 -0.04,-0.97 0.159,-1.93 0.332,-2.89 0.127,-0.7 0.305,-1.39 0.521,-2.08 0.292,-0.93 0.832,-1.77 1.044,-2.71 0.186,-0.84 0.219,-1.69 0.188,-2.56 -0.02,-0.65 -0.389,-1.29 -0.284,-1.95 0.06,-0.34 0.393,-0.59 0.474,-0.94 0.09,-0.39 -0.03,-0.8 0,-1.19 0.04,-0.63 0.19,-1.24 0.285,-1.84 0.125,-0.81 0.204,-1.63 0.379,-2.42 0.188,-0.85 0.513,-1.66 0.712,-2.51 0.177,-0.76 0.226,-1.53 0.427,-2.29 0.147,-0.55 0.341,-1.08 0.569,-1.61 0.272,-0.62 0.597,-1.22 0.949,-1.8 0.388,-0.64 0.886,-1.21 1.28,-1.84 0.433,-0.71 0.699,-1.51 1.186,-2.18 0.5,-0.69 1.14,-1.27 1.753,-1.86 0.5,-0.48 1.081,-0.88 1.564,-1.37 0.605,-0.62 1.101,-1.34 1.661,-2 0.515,-0.61 1.059,-1.19 1.565,-1.8 0.408,-0.49 0.77,-1.02 1.184,-1.51 0.333,-0.4 0.652,-0.81 1.044,-1.14 0.331,-0.28 0.758,-0.43 1.09,-0.71 0.797,-0.66 1.45,-1.49 2.134,-2.27 0.726,-0.83 1.415,-1.7 2.086,-2.57 0.525,-0.69 0.985,-1.42 1.518,-2.09 0.422,-0.54 0.897,-1.03 1.327,-1.56 0.114,-0.13 0.171,-0.35 0.334,-0.42 0.155,-0.11 0.376,-0.11 0.521,0 0.17,0.11 0.226,0.36 0.237,0.57 0.01,0.27 -0.197,0.52 -0.237,0.8 -0.03,0.24 0.03,0.51 0,0.76 -0.04,0.35 -0.137,0.69 -0.286,1 -0.225,0.47 -0.593,0.85 -0.9,1.28 -0.279,0.38 -0.561,0.76 -0.854,1.14 -0.354,0.44 -0.793,0.83 -1.09,1.33 -0.543,0.9 -0.789,1.06 -1.28,1.53 -0.398,0.37 -0.808,0.87 -1.328,0.97 -0.521,0.11 -0.961,0.65 -1.423,1 -0.503,0.38 -1.018,0.75 -1.47,1.19 -0.384,0.38 -0.782,0.75 -1.043,1.23 -0.226,0.4 -0.416,0.86 -0.426,1.33 -0.01,0.66 0.352,1.29 0.521,1.94 0.164,0.63 0.328,1.26 0.474,1.9 0.207,0.89 0.365,1.8 0.57,2.7 0.265,1.15 0.694,2.29 0.852,3.46 0.07,0.55 -0.202,1.16 0.04,1.66 0.172,0.34 0.769,0.35 0.901,0.72 0.145,0.4 -0.29,0.81 -0.237,1.23 0.05,0.43 0.412,0.77 0.569,1.18 0.239,0.61 0.378,1.27 0.57,1.9 0.25,0.82 0.521,1.64 0.759,2.46 0.202,0.72 0.391,1.42 0.569,2.15 0.256,1.03 0.457,2.07 0.711,3.12 0.387,1.59 0.846,3.15 1.232,4.74 0.119,0.48 0.224,0.98 0.333,1.47 0.08,0.36 0.196,0.71 0.235,1.09 0.03,0.31 0.01,0.64 0,0.95 -0.01,0.33 -0.1,0.66 -0.1,0.99 0,0.42 0.03,0.84 0.143,1.24 0.1,0.35 0.276,0.66 0.426,1 0.21,0.46 0.489,0.88 0.664,1.37 0.241,0.65 -0.03,1.61 0.522,2.03 1.523,1.19 4.626,1.55 5.785,0 0.445,-0.58 -0.414,-1.42 -0.618,-2.13 -0.206,-0.73 -0.419,-1.45 -0.615,-2.17 -0.166,-0.61 -0.313,-1.24 -0.474,-1.86 -0.218,-0.84 -0.376,-1.7 -0.665,-2.51 -0.231,-0.66 -0.621,-1.25 -0.852,-1.9 -0.207,-0.59 -0.319,-1.2 -0.474,-1.8 -0.226,-0.87 -0.464,-1.74 -0.664,-2.61 -0.213,-0.92 -0.379,-1.86 -0.569,-2.79 -0.284,-1.37 -0.573,-2.76 -0.854,-4.13 -0.191,-0.94 -0.421,-1.85 -0.569,-2.8 -0.154,-0.98 -0.254,-1.95 -0.331,-2.94 -0.08,-1.01 -0.235,-2.02 -0.144,-3.03 0.07,-0.69 0.319,-1.36 0.475,-2.04 0.127,-0.55 0.157,-1.13 0.379,-1.66 0.238,-0.56 0.621,-1.05 0.996,-1.52 0.485,-0.61 1.005,-1.22 1.612,-1.71 0.777,-0.64 1.723,-1.01 2.561,-1.57 0.854,-0.56 1.727,-1.09 2.513,-1.75 1.006,-0.83 1.879,-1.81 2.797,-2.74 0.787,-0.8 1.576,-1.59 2.324,-2.43 0.524,-0.57 0.805,-1.47 1.516,-1.79 0.546,-0.26 1.215,-0.13 1.803,0 0.471,0.1 0.859,0.45 1.328,0.56 0.755,0.17 1.547,0.1 2.323,0.1 l 2.608,0 c 0.854,0 1.71,0.11 2.561,0 0.751,-0.1 1.484,-0.25 2.229,-0.37 0.677,-0.1 1.353,-0.23 2.038,-0.29 l 1.85,0 2.607,0 2.181,0 c 0.413,0 0.823,-0.11 1.233,-0.13 0.572,-0.11 1.131,-0.31 1.707,-0.29 0.441,0 1.013,0 1.281,0.33 0.749,0.97 -0.107,2.46 -0.04,3.69 0.05,1.15 0.26,2.28 0.379,3.42 0.117,1.1 0.164,2.22 0.332,3.31 0.177,1.16 0.497,2.28 0.712,3.43 0.123,0.66 0.201,1.32 0.331,1.99 0.152,0.75 0.456,1.5 0.522,2.27 0.1,1.13 -0.254,2.28 -0.189,3.42 0.03,0.66 0.205,1.29 0.332,1.94 0.112,0.57 0.31,1.13 0.379,1.71 0.1,0.81 0.05,1.64 0.04,2.46 0,0.98 0,1.97 -0.1,2.95 -0.1,1.02 -0.312,2.03 -0.474,3.03 -0.123,0.77 -0.281,1.55 -0.38,2.32 -0.175,1.37 -0.272,2.76 -0.378,4.13 -0.1,1.27 -0.1,2.53 -0.237,3.79 -0.11,0.95 -0.571,1.88 -0.475,2.84 0.04,0.44 0.112,0.99 0.475,1.23 0.833,0.57 2.358,0.75 3.034,0 0.594,-0.66 -0.253,-1.75 -0.285,-2.64 -0.03,-0.95 0.04,-1.9 0.1,-2.85 0.07,-1.17 0.178,-2.34 0.284,-3.51 0.05,-0.63 -0.04,-1.31 0.191,-1.9 0.167,-0.42 0.566,-0.71 0.83,-1.09 0.14,-0.2 0.332,-0.38 0.402,-0.62 0.07,-0.2 0,-0.43 0,-0.66 0,-0.44 -0.04,-0.9 -0.04,-1.35 0,-0.38 0,-0.78 0.04,-1.16 0.07,-0.58 0.225,-1.15 0.333,-1.71 0.13,-0.7 0.244,-1.39 0.378,-2.09 0.108,-0.53 0.142,-1.09 0.333,-1.61 0.158,-0.42 0.457,-0.78 0.663,-1.19 0.291,-0.56 0.592,-1.14 0.806,-1.75 0.236,-0.66 0.421,-1.33 0.522,-2.04 0.125,-0.85 0.113,-1.73 0.1,-2.6 -0.01,-0.63 -0.119,-1.26 -0.142,-1.9 -0.02,-0.7 -0.03,-1.4 0,-2.09 0.02,-0.6 0.118,-1.21 0.142,-1.81 0.02,-0.54 0,-1.1 0,-1.65 0,-0.5 -0.108,-0.98 -0.04,-1.47 0.05,-0.37 0.233,-0.73 0.332,-1.09 0.197,-0.75 0.413,-1.48 0.521,-2.23 0.09,-0.59 0.08,-1.19 0.1,-1.8 0.02,-0.68 -0.07,-1.37 0,-2.04 0.02,-0.24 0.108,-0.47 0.141,-0.71 0.06,-0.35 0,-0.74 0.1,-1.09 0.107,-0.34 0.259,-0.71 0.521,-0.95 0.127,-0.12 0.303,-0.2 0.474,-0.24 0.154,0 0.347,-0.11 0.474,0 0.481,0.35 0.378,1.14 0.522,1.73 0.12,0.47 0.218,0.97 0.284,1.46 0.09,0.61 0.09,1.23 0.143,1.84 0.08,0.88 0.167,1.77 0.283,2.66 0.121,0.89 0.273,1.79 0.428,2.7 0.131,0.76 0.291,1.51 0.426,2.28 0.133,0.73 0.197,1.5 0.38,2.23 0.146,0.58 0.404,1.12 0.568,1.7 0.111,0.4 0.201,0.79 0.285,1.19 0.11,0.52 0.226,1.04 0.285,1.57 0.04,0.34 0.03,0.7 0.04,1.04 0,0.4 -0.04,0.83 0,1.23 0.05,0.48 0.191,0.92 0.331,1.37 0.184,0.61 0.5,1.15 0.664,1.75 0.195,0.72 0.236,1.46 0.379,2.19 0.128,0.66 0.323,1.29 0.427,1.94 0.127,0.8 0.05,1.63 0.237,2.42 0.07,0.31 0.261,0.59 0.332,0.91 0.109,0.47 0.08,0.97 0.142,1.46 0.1,0.87 0.225,1.73 0.332,2.61 0.1,0.79 0.168,1.59 0.285,2.37 0.107,0.72 0.274,1.42 0.379,2.13 0.07,0.54 0.123,1.08 0.189,1.61 0.09,0.7 0.169,1.4 0.286,2.1 0.106,0.62 0.258,1.26 0.379,1.89 0.1,0.53 -0.123,1.23 0.285,1.57 0.715,0.6 2.176,0.7 2.797,0 0.275,-0.31 -0.119,-0.82 -0.142,-1.23 -0.02,-0.46 0.03,-0.92 0,-1.39 -0.02,-0.3 -0.08,-0.59 -0.143,-0.9 -0.07,-0.24 -0.197,-0.46 -0.237,-0.71 -0.05,-0.3 0,-0.63 0,-0.94 0,-0.2 0.02,-0.42 0,-0.63 -0.02,-0.23 -0.158,-0.47 -0.143,-0.7 0.02,-0.3 0.383,-0.67 0.286,-0.86 -0.1,-0.19 -0.315,-0.84 -0.333,-1.27 -0.02,-0.55 0.243,-1.06 0.285,-1.61 0.04,-0.6 -0.04,-1.17 -0.04,-1.77 0,-0.54 -0.02,-1.1 0.04,-1.64 0.05,-0.49 0.278,-0.95 0.285,-1.44 0,-0.55 -0.202,-1.1 -0.285,-1.66 -0.08,-0.49 -0.07,-0.98 -0.19,-1.47 -0.07,-0.34 -0.237,-0.65 -0.332,-0.98 -0.1,-0.33 -0.197,-0.66 -0.237,-1 -0.03,-0.31 -0.03,-0.64 0,-0.95 0.04,-0.4 0.17,-0.79 0.237,-1.18 0.07,-0.48 0.157,-0.95 0.19,-1.43 0.03,-0.41 0,-0.83 0,-1.24 0,-0.53 -0.01,-1.07 -0.04,-1.61 -0.03,-0.6 -0.119,-1.2 -0.142,-1.8 -0.02,-0.54 0,-1.07 0,-1.61 l 0,-1.85 c 0,-0.47 0.04,-0.95 0.04,-1.42 0.01,-1.9 -0.1,-3.79 -0.1,-5.68 0,-0.98 -0.04,-1.94 0.04,-2.9 0.131,-1.57 0.437,-3.1 0.712,-4.65 0.223,-1.25 0.473,-2.5 0.758,-3.75 0.142,-0.62 0.136,-1.3 0.474,-1.84 0.836,-1.33 2.469,-1.95 3.604,-3.03 1.684,-1.62 2.983,-3.61 4.742,-5.14 2.351,-2.03 5.247,-3.37 7.682,-5.3 1.575,-1.26 3.163,-2.54 4.457,-4.09 1.06,-1.26 1.821,-2.74 2.655,-4.17 0.979,-1.67 2.03,-3.31 2.751,-5.12 0.486,-1.21 0.794,-2.49 1.044,-3.78 0.212,-1.1 0.354,-2.21 0.378,-3.33 0.03,-1.36 0,-2.75 -0.284,-4.08 -0.27,-1.3 -0.902,-2.51 -1.328,-3.78 -0.313,-0.93 -0.336,-1.43 -0.438,-2.15 -0.04,-0.33 -0.04,-0.66 -0.08,-0.98 -0.177,-1.43 -0.635,-2.76 -0.72,-4.26 -0.07,-1.19 0,-2.4 -0.07,-3.59 -0.07,-1.2 -0.269,-2.4 -0.379,-3.6 -0.05,-0.56 -0.178,-1.12 -0.127,-1.67 0.04,-0.45 0.242,-0.88 0.346,-1.31 0.09,-0.38 0.133,-0.79 0.253,-1.18 0.251,-0.8 0.379,-1.74 0.972,-2.35 0.471,-0.48 1.189,-0.69 1.853,-0.81 0.359,-0.1 0.729,0.1 1.094,0.1 0.314,0 0.632,0 0.937,-0.1 0.352,-0.11 0.688,-0.25 1.007,-0.42 0.581,-0.32 1.112,-0.73 1.628,-1.15 0.58,-0.47 1.156,-0.95 1.643,-1.52 0.525,-0.61 0.941,-1.31 1.357,-2 0.288,-0.48 0.599,-0.95 0.788,-1.48 0.143,-0.4 0.196,-0.83 0.251,-1.24 0.05,-0.43 0.1,-0.86 0.09,-1.29 0,-0.19 0.03,-0.4 -0.05,-0.57 -0.1,-0.21 -0.293,-0.35 -0.487,-0.48 -0.202,-0.11 -0.437,-0.19 -0.671,-0.21 -0.193,0 -0.388,0 -0.569,0.11 -0.326,0.12 -0.595,0.35 -0.905,0.5 -0.317,0.16 -0.65,0.29 -0.973,0.42 -0.336,0.16 -0.665,0.32 -1.005,0.45 -0.369,0.15 -0.736,0.32 -1.123,0.42 -0.269,0.1 -0.556,0 -0.823,0.1 -0.257,0.11 -0.498,0.19 -0.736,0.31 -0.361,0.18 -0.694,0.42 -1.04,0.63 -0.319,0.19 -0.61,0.44 -0.956,0.56 -0.171,0.11 -0.372,0 -0.536,0.11 -0.261,0.12 -0.432,0.39 -0.654,0.57 -0.187,0.15 -0.363,0.32 -0.57,0.45 -0.178,0.1 -0.366,0.21 -0.57,0.25 l -0.386,0 -0.352,0 c -0.08,0 -0.08,0.19 -0.167,0.21 -0.122,0 -0.272,0 -0.353,-0.14 -0.1,-0.12 -0.07,-0.29 -0.09,-0.44 -0.02,-0.13 -0.07,-0.27 -0.05,-0.4 0,-0.11 0.04,-0.22 0.09,-0.33 0.06,-0.17 0.1,-0.35 0.217,-0.5 0.28,-0.32 0.71,-0.48 1.09,-0.69 0.582,-0.32 1.188,-0.59 1.81,-0.8 0.791,-0.28 1.627,-0.41 2.431,-0.65 0.801,-0.24 1.603,-0.48 2.381,-0.78 0.623,-0.25 1.218,-0.56 1.827,-0.84 0.721,-0.33 1.441,-0.66 2.163,-0.98 l 1.359,-0.62 2.95,-1.65 c 0,0 1.174,-0.58 1.726,-0.92 0.575,-0.37 1.121,-0.77 1.644,-1.2 0.442,-0.37 0.84,-0.79 1.258,-1.19 0.359,-0.34 0.688,-0.71 1.072,-1.02 0.381,-0.31 0.846,-0.52 1.213,-0.84 0.39,-0.35 0.715,-0.76 1.032,-1.18 0.181,-0.24 0.326,-0.5 0.493,-0.74 0.175,-0.26 0.386,-0.49 0.534,-0.77 0.204,-0.38 0.32,-0.79 0.482,-1.18 0.28,-0.68 1.355,-1.5 0.849,-2.04 -0.25,-0.26 -0.733,0.58 -1.023,0.36 -0.407,-0.3 0.02,-1.02 0.09,-1.52 0.06,-0.47 0.127,-0.96 0.285,-1.41 0.112,-0.32 0.318,-0.6 0.466,-0.91 0.222,-0.46 0.455,-0.92 0.63,-1.4 0.127,-0.36 0.198,-0.72 0.301,-1.09 0.09,-0.31 0.261,-0.61 0.286,-0.94 0.01,-0.23 0.03,-0.49 -0.1,-0.66 -0.05,-0.11 -0.149,-0.12 -0.234,-0.11 -0.136,0 -0.238,0.13 -0.328,0.24 -0.139,0.16 -0.223,0.37 -0.309,0.56 -0.107,0.23 -0.13,0.5 -0.244,0.72 -0.07,0.16 -0.129,0.4 -0.301,0.43 -0.07,0 -0.14,0 -0.168,-0.13 -0.07,-0.14 0.05,-0.43 0.05,-0.47 0,-0.16 0.111,-0.63 0.143,-0.68 0.106,-0.18 0.208,-0.38 0.309,-0.56 0.123,-0.22 0.246,-0.45 0.361,-0.67 0.214,-0.42 0.372,-0.87 0.613,-1.28 0.259,-0.44 0.571,-0.85 0.889,-1.24 0.199,-0.25 0.387,-0.52 0.635,-0.73 0.14,-0.11 0.301,-0.2 0.471,-0.27 0.208,-0.1 0.462,0 0.652,-0.1 0.155,-0.11 0.286,-0.25 0.337,-0.42 0.03,-0.11 0.04,-0.23 -0.03,-0.29 -0.1,-0.1 -0.268,0 -0.403,0 -0.206,0 -0.485,0.17 -0.621,0 -0.128,-0.15 0.08,-0.38 0.09,-0.58 0.02,-0.27 0,-0.53 0,-0.8 0.01,-0.73 0.109,-1.45 0.1,-2.18 0,-0.38 -0.03,-0.75 -0.09,-1.13 -0.07,-0.46 -0.171,-0.91 -0.268,-1.35 -0.08,-0.34 -0.155,-0.67 -0.235,-1 -0.13,-0.54 -0.217,-1.09 -0.402,-1.61 -0.159,-0.43 -0.363,-0.86 -0.604,-1.27 -0.178,-0.3 -0.288,-0.75 -0.62,-0.84 z"
       id="path4175"
       inkscape:connector-curvature="0"
       sodipodi:nodetypes="cccccsccccccccccccccccscccccccccccccccccccccccccccccccccccccccscccccccccccccccccccccccccccccccccccccccccccccccccccccccccccccccccccccccccccccccccccccccccccccccccccccccccccccccccccccccccccssssccccssccccccccsscccccccccscccccccccccccccccccccccccccccccccccccccsccccccccccccccccccccccccccccccccccccccccccccccccccccccccccccccccccccsccccccccccccccccccccccccccccsscccccscccccccccccccccccccccccccccsscccccccccccscccccccccccccccccccccccccccccccccccccccccscccccscccccccccsccsscscccccccccccccssssccsssssscccccccccccccccccccccccccsccccccccccccccccccccccccccccccccccccccsccccccccccsccccccccccc" />
    <circle
       style="color:#000000;clip-rule:nonzero;display:inline;overflow:visible;visibility:visible;opacity:1;isolation:auto;mix-blend-mode:normal;color-interpolation:sRGB;color-interpolation-filters:linearRGB;solid-color:#000000;solid-opacity:1;fill:#ffffff;fill-opacity:0.12156863;fill-rule:nonzero;stroke:none;stroke-width:1;stroke-linecap:round;stroke-linejoin:round;stroke-miterlimit:4;stroke-dasharray:none;stroke-dashoffset:0;stroke-opacity:1;color-rendering:auto;image-rendering:auto;shape-rendering:auto;text-rendering:auto;enable-background:accumulate"
       id="circle4286"
       cx="43011.645"
       cy="-247892.91"
       r="137.52307" />
    <circle
       style="color:#000000;clip-rule:nonzero;display:inline;overflow:visible;visibility:visible;opacity:1;isolation:auto;mix-blend-mode:normal;color-interpolation:sRGB;color-interpolation-filters:linearRGB;solid-color:#000000;solid-opacity:1;fill:#ffffff;fill-opacity:1;fill-rule:nonzero;stroke:none;stroke-width:1;stroke-linecap:round;stroke-linejoin:round;stroke-miterlimit:4;stroke-dasharray:none;stroke-dashoffset:0;stroke-opacity:1;color-rendering:auto;image-rendering:auto;shape-rendering:auto;text-rendering:auto;enable-background:accumulate"
       id="path4212"
       cx="43011.645"
       cy="-247892.91"
       r="108.47211" />
    <path
       style="color:#000000;clip-rule:nonzero;display:inline;overflow:visible;visibility:visible;opacity:1;isolation:auto;mix-blend-mode:normal;color-interpolation:sRGB;color-interpolation-filters:linearRGB;solid-color:#000000;solid-opacity:1;fill:url(#radialGradient4755);fill-opacity:1;fill-rule:nonzero;stroke:none;stroke-width:1;stroke-linecap:round;stroke-linejoin:round;stroke-miterlimit:4;stroke-dasharray:none;stroke-dashoffset:0;stroke-opacity:1;color-rendering:auto;image-rendering:auto;shape-rendering:auto;text-rendering:auto;enable-background:accumulate"
       d="m -132.31641,-156.24609 0,953.01171 1164.61131,0 0,-953.01171 -1164.61131,0 z M 449.98828,-70.375 A 390.62863,390.62863 0 0 1 840.61719,320.25391 390.62863,390.62863 0 0 1 449.98828,710.88281 390.62863,390.62863 0 0 1 59.359375,320.25391 390.62863,390.62863 0 0 1 449.98828,-70.375 Z"
       transform="translate(42561.656,-248213.16)"
       id="rect4718"
       inkscape:connector-curvature="0" />
    <rect
       style="color:#000000;clip-rule:nonzero;display:inline;overflow:visible;visibility:visible;opacity:1;isolation:auto;mix-blend-mode:normal;color-interpolation:sRGB;color-interpolation-filters:linearRGB;solid-color:#000000;solid-opacity:1;fill:url(#linearGradient4731);fill-opacity:1;fill-rule:nonzero;stroke:none;stroke-width:1;stroke-linecap:round;stroke-linejoin:round;stroke-miterlimit:4;stroke-dasharray:none;stroke-dashoffset:0;stroke-opacity:1;color-rendering:auto;image-rendering:auto;shape-rendering:auto;text-rendering:auto;enable-background:accumulate"
       id="rect4723"
       width="283.40494"
       height="10.119082"
       x="40532.473"
       y="248483.67"
       ry="5.0595412"
       transform="matrix(-0.9435916,-0.33111159,0.3279362,-0.94469987,0,0)" />
    <rect
       transform="matrix(-0.9435916,-0.33111159,0.3279362,-0.94469987,0,0)"
       ry="2.9318666"
       y="248455.28"
       x="40732.504"
       height="5.8637333"
       width="164.22546"
       id="rect4733"
       style="color:#000000;clip-rule:nonzero;display:inline;overflow:visible;visibility:visible;opacity:0.26700003;isolation:auto;mix-blend-mode:normal;color-interpolation:sRGB;color-interpolation-filters:linearRGB;solid-color:#000000;solid-opacity:1;fill:url(#linearGradient4735);fill-opacity:1;fill-rule:nonzero;stroke:none;stroke-width:1;stroke-linecap:round;stroke-linejoin:round;stroke-miterlimit:4;stroke-dasharray:none;stroke-dashoffset:0;stroke-opacity:1;color-rendering:auto;image-rendering:auto;shape-rendering:auto;text-rendering:auto;enable-background:accumulate" />
    <rect
       style="color:#000000;clip-rule:nonzero;display:inline;overflow:visible;visibility:visible;opacity:0.61100003;isolation:auto;mix-blend-mode:normal;color-interpolation:sRGB;color-interpolation-filters:linearRGB;solid-color:#000000;solid-opacity:1;fill:url(#linearGradient4739);fill-opacity:1;fill-rule:nonzero;stroke:none;stroke-width:1;stroke-linecap:round;stroke-linejoin:round;stroke-miterlimit:4;stroke-dasharray:none;stroke-dashoffset:0;stroke-opacity:1;color-rendering:auto;image-rendering:auto;shape-rendering:auto;text-rendering:auto;enable-background:accumulate"
       id="rect4737"
       width="258.51071"
       height="9.2302246"
       x="40569.465"
       y="248406.5"
       ry="4.6151123"
       transform="matrix(-0.9435916,-0.33111159,0.3279362,-0.94469987,0,0)" />
    <path
       style="color:#000000;clip-rule:nonzero;display:inline;overflow:visible;visibility:visible;opacity:1;isolation:auto;mix-blend-mode:normal;color-interpolation:sRGB;color-interpolation-filters:linearRGB;solid-color:#000000;solid-opacity:1;fill:#ffffff;fill-opacity:0.11627909;fill-rule:nonzero;stroke:#0a042a;stroke-width:1;stroke-linecap:round;stroke-linejoin:round;stroke-miterlimit:4;stroke-dasharray:none;stroke-dashoffset:0;stroke-opacity:1;filter:url(#filter5004);color-rendering:auto;image-rendering:auto;shape-rendering:auto;text-rendering:auto;enable-background:accumulate"
       d="M 451.04688,125.36523 A 196.99738,196.99738 0 0 0 254.04883,322.36328 196.99738,196.99738 0 0 0 404.62109,513.57227 c 0.27455,-0.31224 0.56364,-0.60598 0.92774,-0.79297 0.768,-0.37 1.68787,-0.36875 2.54687,-0.46875 0.866,-0.13 1.74519,-0.13086 2.61719,-0.13086 0.693,0 1.38413,-0.0996 2.07813,-0.0996 0.831,0.01 1.65246,0.15976 2.48046,0.25976 1.295,0.13 2.59668,0.19008 3.88868,0.33008 0.986,0.11 1.96917,0.26039 2.95117,0.40039 0.716,0.11 1.42948,0.23985 2.14648,0.33985 0.669,0.1 1.34772,0.14953 2.01172,0.26953 0.59,0.12 1.16914,0.29093 1.74414,0.46093 0.657,0.21 1.27936,0.49969 1.94336,0.67969 0.747,0.2 1.5143,0.29063 2.2793,0.39063 0.4,0.11 0.80503,0.10937 1.20703,0.10937 0.536,0 1.07237,0.10938 1.60937,0.10938 0.65,0 1.30032,6.2e-4 1.94532,-0.10938 0.588,-0.07 1.16814,-0.19984 1.74414,-0.33984 0.544,-0.13 1.07337,-0.30094 1.60937,-0.46094 0.672,-0.21 1.32372,-0.47914 2.01172,-0.61914 1.003,-0.22 2.05378,-0.0107 3.05078,-0.2207 0.361,-0.07 0.67906,-0.26914 1.03906,-0.36914 0.592,-0.11 1.20755,-0.11133 1.81055,-0.11133 0.637,-0.04 1.27511,-0.13867 1.91211,-0.13867 0.615,-0.02 1.22775,-0.13086 1.84375,-0.13086 l 1.94531,0 c 0.828,0 1.65747,0.20937 2.48047,0.10937 0.537,-0.06 1.04422,-0.25914 1.57422,-0.36914 0.743,-0.13 1.50005,-0.15953 2.24805,-0.26953 1.007,-0.11 2.01158,-0.24086 3.01758,-0.38086 1.017,-0.13 2.05278,-0.17992 3.05078,-0.41992 0.621,-0.15 1.26954,-0.26938 1.81054,-0.60938 0.595,-0.37 1.04138,-0.95 1.48438,-1.5 0.722,-0.88 1.31962,-1.86937 1.89062,-2.85937 0.402,-0.7 0.73127,-1.43063 1.07227,-2.14063 0.458,-0.98 0.84359,-1.99093 1.30859,-2.96093 0.431,-0.89 0.988,-1.72867 1.375,-2.63868 0.213,-0.51 0.63758,-1.02054 0.51758,-1.56054 -0.366,-1.62 -1.96794,-2.85938 -3.46094,-3.60938 -0.613,-0.33 -1.37706,-0.0605 -2.03906,-0.23047 -0.863,-0.23 -1.74479,-0.52101 -2.4668,-1.04101 -0.742,-0.54 -1.25878,-1.33984 -1.80078,-2.08984 -0.734,-1 -1.44731,-2.03969 -1.94531,-3.17969 -0.441,-1 -0.80039,-2.07969 -0.90039,-3.17969 -0.027,-0.33 -0.12239,-0.74047 0.0996,-0.98047 0.323,-0.4 0.94187,-0.39906 1.42187,-0.28906 1.798,0.2 3.30865,1.46953 4.93165,2.26953 0.881,0.44 1.76742,0.87086 2.60742,1.38086 0.904,0.54 1.60942,1.45883 2.60742,1.79883 0.524,0.21 1.26411,0.48937 1.66211,0.10937 0.298,-0.29 0.15698,-0.86828 -0.041,-1.23828 -0.461,-0.83 -1.49509,-1.23133 -2.37109,-1.61133 -0.863,-0.38 -1.833,-0.40914 -2.75,-0.61914 -0.821,-0.19 -1.66584,-0.30031 -2.46484,-0.57031 -1.461,-0.49 -2.81471,-1.25062 -4.22071,-1.89062 -1.092,-0.5 -2.19148,-0.94876 -3.27148,-1.46876 -0.927,-0.44 -1.857,-0.88085 -2.75,-1.38085 -0.797,-0.46 -1.57322,-0.94071 -2.32422,-1.47071 -0.834,-0.58 -1.65997,-1.16961 -2.41797,-1.84961 -0.661,-0.59 -1.28061,-1.22039 -1.84961,-1.90039 -0.486,-0.58 -0.91812,-1.20984 -1.32812,-1.83984 -0.414,-0.65 -0.87572,-1.28 -1.13672,-2 -0.213,-0.59 -0.022,-1.28985 -0.33203,-1.83984 -0.682,-1.2 -2.15786,-1.72899 -3.13086,-2.70899 -0.617,-0.62 -1.17308,-1.29023 -1.70508,-1.99023 -0.765,-1 -1.65277,-1.9511 -2.13477,-3.1211 -0.394,-0.96 -0.54836,-2.00906 -0.56836,-3.03906 -0.034,-1.4 0.30236,-2.77086 0.56836,-4.13086 0.21,-1.08 0.50064,-2.12969 0.80664,-3.17969 0.191,-0.65 0.33163,-1.52945 0.64063,-1.93945 0.123,-0.16 0.58031,0.0205 0.57031,0.23047 -0.045,0.76 -0.31016,1.95945 -0.41016,2.93945 -0.092,0.94 -0.14257,1.87055 -0.14257,2.81055 0.003,1.12 0.0125,2.24914 0.18945,3.36914 0.116,0.72 0.23931,1.48086 0.57031,2.13086 0.445,0.88 1.15266,1.61031 1.84766,2.32031 0.775,0.78 2.56055,2.08984 2.56055,2.08984 0,0 -0.30846,-1.99023 -0.18946,-2.99023 0.082,-0.69 -0.0758,-1.99023 0.61719,-1.99023 0.253,-0.01 0.2132,0.46898 0.2832,0.70898 0.354,1.33 -0.0876,2.87008 0.56836,4.08008 0.21,0.38 0.9961,0.86133 0.9961,0.86133 0,0 0.0445,-3.52149 0.14453,-5.27149 0.072,-1.29 0.0241,-2.59961 0.33008,-3.84961 0.382,-1.56 1.00532,-2.76 1.61132,-4.25 0.33,-0.81 0.91094,-1.79914 1.21094,-2.61914 0.241,-0.65 0.37206,-1.35023 0.66406,-1.99023 0.218,-0.47 0.29369,-1.46961 0.80469,-1.34961 0.31,0.08 0.10031,0.63875 0.0703,0.96875 -0.048,0.49 -0.32039,0.95141 -0.40039,1.4414 -0.08,0.42 -0.47707,1.13024 -0.0801,1.24024 0.29199,0.09 0.47906,-0.57055 0.66406,-0.81055 0.283,-0.36 0.40225,-0.65992 0.78125,-0.91992 0.313,-0.21 0.76453,-0.77976 1.01953,-0.50977 0.263,0.3 -0.39819,0.69001 -0.61719,1 -0.342,0.51 -0.78184,0.92899 -1.08984,1.45899 -0.591,1 -1.13588,2.07094 -1.42188,3.21094 -0.504,2.03 -0.45461,4.16953 -0.47461,6.26953 -0.025,1.9 0.0332,3.80945 0.28516,5.68945 0.137,1.03 0.28011,2.07125 0.66211,3.03125 0.509,1.29 1.32876,2.42859 2.13476,3.5586 0.896,1.23999 1.12038,1.77093 2.10938,2.96093 0.715,0.85 2.00072,3.56961 3.01172,3.09961 0.349,-0.16 -0.0399,-0.88929 -0.0899,-1.2793 -0.113,-0.77999 -0.06,-1.50976 0,-2.25976 0.021,-0.27 0.11891,-0.44141 0.37891,-0.44141 0.17,-0.02 0.28836,0.40985 0.31836,0.58985 0.182,0.81 0.23128,1.33148 0.48828,2.02148 0.254,0.71 0.53709,1.40828 0.99609,1.98828 0.46,0.58 1.11304,0.99164 1.70704,1.43164 0.73,0.54 1.45139,1.11977 2.27539,1.50977 0.941,0.44 1.96628,0.71039 2.98828,0.90039 1.106,0.19 2.76523,1.24906 3.36523,0.28906 0.498,-0.79 -1.03787,-1.57015 -1.42187,-2.41015 -0.397,-0.88 -0.74839,-1.80977 -0.90039,-2.75977 -0.144,-0.91 -0.08,-1.83 0,-2.75 0.067,-0.76 0.0916,-3.32938 0.30664,-4.10938 0.085,-0.26999 0.7989,-0.29999 0.8789,0 0.258,1.01001 0.0335,1.76961 0.18946,2.84961 0.1,0.69 0.16633,1.38985 0.23632,2.08985 0.096,0.84 0.0372,1.69976 0.28321,2.50976 0.221,0.72 0.65592,1.35 1.04492,2 0.387,0.63 0.83625,1.23985 1.28125,1.83985 0.486,0.66 1.01862,1.28945 1.51562,1.93945 0.49901,0.66 0.88071,1.41 1.47071,2 l 0,-0.0996 c 0.169,0.17 0.35708,0.30016 0.58008,0.41016 0.47,0.22 0.99718,-6.3e-4 1.49218,0.10937 0.198,0.01 0.39375,0.1211 0.59375,0.1211 0.431,0.11 0.86574,0.10937 1.30274,0.10937 0.831,0.03 1.66823,0.0206 2.49023,-0.10937 0.435,-0.07 0.8613,-0.19985 1.2793,-0.33985 0.437,-0.13 0.86225,-0.31976 1.28125,-0.50976 0.402,-0.19 0.81255,-0.35961 1.18555,-0.59961 0.254,-0.16 0.48393,-0.37031 0.71093,-0.57032 0.448,-0.39999 0.9463,-0.76999 1.2793,-1.25 0.244,-0.36999 0.32005,-0.8307 0.49805,-1.2207 0.185,-0.42 0.42675,-0.8007 0.59375,-1.2207 0.158,-0.39 0.2689,-0.81828 0.3789,-1.23828 0.126,-0.46 0.23032,-0.95164 0.32032,-1.43164 0.047,-0.27 0.0972,-0.52836 0.11718,-0.81836 0.06,-0.82 -0.0395,-1.67 -0.0195,-2.5 0.007,-0.57 0.0774,-1.17 0.10742,-1.75 0.01,-0.24 0.0191,-0.48047 0.0391,-0.73047 0.04,-0.35 0.10156,-1.07031 0.10156,-1.07031 0,0 0.0655,-0.50008 0.10547,-0.83008 0.048,-0.34 0.0257,-0.92992 0.17969,-1.16992 0.153,-0.24 0.17465,-0.34961 0.47265,-0.34961 0.3,0.04 0.45036,0.13882 0.56836,0.54883 0.12,0.41 0.041,1.74023 0.041,1.74023 0,0 -0.12258,1.13117 -0.14258,1.70117 -0.03,0.74 -0.01,1.47875 0,2.21875 0.02,0.86 0.11961,1.71055 0.0996,2.56055 -0.01,0.4 -0.0696,0.79922 -0.0996,1.19922 -0.04,0.5 -0.17961,1.00976 -0.0996,1.50976 0.032,0.24 0.16633,0.44188 0.23633,0.67188 0.052,0.2 -0.0114,0.46937 0.14258,0.60937 0.201,0.22 0.53468,0.10938 0.80468,0.10938 l 1.04493,0 c 0.36899,-0.04 0.74284,-0.0692 1.08984,-0.19922 0.532,-0.19 0.9817,-0.56133 1.4707,-0.86133 0.586,-0.34 1.18891,-0.65906 1.75391,-1.03906 0.691,-0.46 1.33623,-0.99977 1.99023,-1.50977 0.29,-0.23 0.58247,-0.46093 0.85547,-0.71093 0.363,-0.33 0.75197,-0.64883 1.04297,-1.04883 0.241,-0.33 0.40031,-0.71008 0.57031,-1.08008 0.143,-0.32 0.30696,-0.63094 0.37696,-0.96094 0.05,-0.29 -0.02,-0.60039 0,-0.90039 0.02,-0.23 -0.1134,-0.55992 0.0996,-0.66992 0.222,-0.07 0.40348,0.28047 0.52148,0.48047 0.187,0.33 0.19633,0.72984 0.23633,1.08984 0.03,0.31 -0.285,0.82094 0,0.96094 0.384,0.19 0.73197,-0.45953 1.04297,-0.76953 0.478,-0.45 0.81237,-1.05032 1.23437,-1.57032 0.37,-0.44 0.81972,-0.83031 1.13672,-1.32031 0.362,-0.55 0.59452,-1.19078 0.85352,-1.80078 0.229,-0.55 0.38518,-1.12015 0.61718,-1.66015 0.242,-0.56 0.58969,-1.08016 0.80469,-1.66016 0.212,-0.57 0.36061,-1.16 0.47461,-1.75 0.062,-0.31 0.11133,-0.61945 0.11133,-0.93945 -0.003,-0.31 -0.0328,-0.62993 -0.13281,-0.91993 -0.131,-0.39 -0.39352,-0.72007 -0.60352,-1.08007 -0.225,-0.37 -0.50813,-0.71961 -0.70313,-1.09961 -0.21399,-0.44 -0.3289,-0.89985 -0.5039,-1.33985 -0.204,-0.52 -0.41172,-1.04078 -0.63672,-1.55078 -0.244,-0.55 -0.54644,-1.06937 -0.77344,-1.60937 -0.219,-0.54 -0.45436,-1.07063 -0.56836,-1.64063 -0.07,-0.36 -0.14031,-0.72031 -0.0703,-1.07031 0.034,-0.19 0.0474,-0.53906 0.23438,-0.53906 0.216,-0.07 0.41331,0.20914 0.57031,0.36914 0.334,0.34 0.49533,0.82023 0.73633,1.24023 0.24,0.41 0.47707,0.83024 0.70507,1.24024 0.242,0.44 0.47208,0.88984 0.70508,1.33984 0.236,0.47 0.45513,0.93109 0.70313,1.37109 0.245,0.45 0.48748,0.8986 0.77148,1.3086 0.206,0.31 0.30988,0.98086 0.67188,0.88086 0.703,-0.12 0.57612,-1.34079 0.70312,-2.05078 0.181,-0.99 0.0703,-2.00954 0.0703,-3.01954 0,-0.58 0.0602,-1.1607 -0.01,-1.7207 -0.084,-0.66 -0.32028,-1.2782 -0.48828,-1.9082 -0.113,-0.43 -0.26961,-0.85102 -0.34961,-1.29102 -0.04,-0.24 -0.23355,-0.57976 -0.0605,-0.75976 0.132,-0.14 0.41694,-0.11 0.58594,0 0.34,0.19 0.39589,0.67953 0.58789,1.01953 0.188,0.33 0.38873,0.65953 0.55273,1.01953 0.192,0.4 0.33896,0.83 0.50196,1.25 0.156,0.4 0.29512,0.81094 0.45312,1.21094 0.102,0.26 0.14136,0.55953 0.31836,0.76953 0.137,0.17 0.33711,0.24937 0.53711,0.35937 0.28,0.13 0.59367,0.13086 0.88867,0.13086 0.285,-0.05 0.53791,-0.24922 0.75391,-0.44922 0.238,-0.21 0.43231,-0.46 0.57031,-0.75 0.114,-0.22 0.1536,-0.48093 0.1836,-0.71093 0.06,-0.47 0.0508,-0.95969 0.0508,-1.42969 0.01,-0.41 0.0195,-0.82071 0.0195,-1.2207 0,-0.49 -7.8e-4,-0.96946 -0.0508,-1.43946 -0.067,-0.58 -0.16994,-1.1607 -0.33594,-1.7207 -0.136,-0.46 -0.43711,-0.86984 -0.53711,-1.33984 -0.05,-0.27 -0.16077,-0.5786 -0.01,-0.8086 0.081,-0.15 0.2663,-0.15039 0.4043,-0.15039 l 0.002,0.12891 c 0.332,0.09 0.4431,0.53984 0.6211,0.83984 0.241,0.41 0.44451,0.84149 0.60351,1.27148 0.185,0.52 0.27235,1.06938 0.40235,1.60938 0.08,0.33 0.15437,0.66 0.23437,1 0.097,0.44 0.19758,0.88961 0.26758,1.34961 0.06,0.38 0.0898,0.75086 0.0898,1.13086 0.009,0.73 -0.0896,1.44969 -0.0996,2.17969 0,0.27 0.02,0.53078 0,0.80078 -0.01,0.2 -0.21784,0.42812 -0.0898,0.57812 0.136,0.17 0.41509,0 0.62109,0 0.135,0 0.30235,-0.1 0.40235,0 0.07,0.06 0.0613,0.18102 0.0312,0.29102 -0.051,0.17 -0.18289,0.30992 -0.33789,0.41992 -0.19,0.1 -0.44435,-3.9e-4 -0.65235,0.0996 -0.17,0.07 -0.3307,0.15953 -0.4707,0.26953 -0.248,0.21 -0.43576,0.48047 -0.63477,0.73047 -0.31799,0.39 -0.62967,0.80023 -0.88867,1.24023 -0.241,0.41 -0.39928,0.8593 -0.61328,1.2793 -0.115,0.22 -0.23833,0.44992 -0.36133,0.66992 -0.101,0.18 -0.20259,0.38055 -0.30859,0.56055 -0.032,0.05 -0.14258,0.51969 -0.14258,0.67969 0,0.04 -0.12078,0.3307 -0.0508,0.4707 0.028,0.13 0.098,0.13086 0.16797,0.13086 0.172,-0.03 0.23078,-0.27164 0.30078,-0.43164 0.114,-0.22 0.13714,-0.48875 0.24414,-0.71875 0.086,-0.19 0.16959,-0.40055 0.3086,-0.56055 0.09,-0.11 0.19212,-0.24023 0.32812,-0.24023 0.085,-0.01 0.18437,-6.3e-4 0.23438,0.10937 0.12999,0.17 0.1096,0.43016 0.0996,0.66016 -0.025,0.33 -0.19515,0.63141 -0.28515,0.9414 -0.103,0.37 -0.17378,0.72985 -0.30078,1.08985 -0.175,0.48 -0.40886,0.94039 -0.63086,1.40039 -0.148,0.31 -0.35285,0.5882 -0.46485,0.9082 -0.158,0.45 -0.22515,0.94016 -0.28515,1.41016 -0.07,0.5 -0.49685,1.22148 -0.0899,1.52148 0.29,0.22 0.77149,-0.62133 1.02149,-0.36132 0.506,0.54 -0.56766,1.36101 -0.84766,2.04101 -0.162,0.39 -0.27842,0.79969 -0.48242,1.17969 -0.148,0.28 -0.36016,0.50953 -0.53516,0.76953 -0.167,0.24 -0.31118,0.50023 -0.49218,0.74023 -0.317,0.42 -0.64125,0.82969 -1.03125,1.17969 -0.367,0.32 -0.83189,0.52985 -1.21289,0.83985 -0.384,0.30999 -0.71327,0.68148 -1.07227,1.02148 -0.418,0.4 -0.81581,0.81945 -1.25781,1.18945 -0.523,0.43 -1.06953,0.82922 -1.64453,1.19922 -0.552,0.34 -1.72657,0.91992 -1.72657,0.91992 l -2.94921,1.65039 -1.35938,0.6211 c -0.722,0.32 -1.44111,0.64851 -2.16211,0.97851 -0.609,0.28 -1.20512,0.58985 -1.82812,0.83985 -0.778,0.3 -1.57986,0.54125 -2.38086,0.78125 -0.804,0.24 -1.64064,0.37039 -2.43164,0.65039 -0.622,0.21 -1.2266,0.47883 -1.8086,0.79883 -0.38,0.21 -0.80984,0.36945 -1.08984,0.68945 -0.117,0.15 -0.15875,0.33 -0.21875,0.5 -0.05,0.11 -0.0899,0.22008 -0.0899,0.33008 -0.02,0.13 0.0308,0.27039 0.0508,0.40039 0.02,0.15 -0.0102,0.31945 0.0898,0.43945 0.081,0.14 0.23151,0.14063 0.35352,0.14063 0.087,-0.02 0.086,-0.20899 0.16601,-0.20899 l 0.35352,0 0.38476,0 c 0.204,-0.04 0.39231,-0.15 0.57031,-0.25 0.207,-0.13 0.38332,-0.30117 0.57032,-0.45117 0.222,-0.18 0.39329,-0.45031 0.65429,-0.57031 0.164,-0.11 0.36416,6.2e-4 0.53516,-0.10938 0.346,-0.12 0.63803,-0.37054 0.95703,-0.56054 0.346,-0.21 0.67806,-0.44891 1.03906,-0.62891 0.238,-0.12 0.47933,-0.20055 0.73633,-0.31055 0.267,-0.1 0.55327,3.9e-4 0.82227,-0.0996 0.387,-0.1 0.75404,-0.26992 1.12304,-0.41992 0.34,-0.13 0.66986,-0.29117 1.00586,-0.45117 0.323,-0.13 0.65566,-0.25992 0.97266,-0.41992 0.31,-0.15 0.5783,-0.38 0.9043,-0.5 0.181,-0.11 0.37731,-0.10938 0.57031,-0.10938 0.234,0.02 0.46792,0.10094 0.66992,0.21094 0.194,0.13 0.38828,0.26852 0.48828,0.47852 0.08,0.17 0.0488,0.38031 0.0488,0.57031 0.01,0.43 -0.0398,0.86101 -0.0898,1.29101 -0.055,0.41 -0.107,0.84024 -0.25,1.24024 -0.189,0.53 -0.50107,0.99851 -0.78907,1.47851 -0.416,0.69 -0.83242,1.39 -1.35742,2 -0.487,0.57 -1.06258,1.05149 -1.64258,1.52149 -0.516,0.42 -1.04595,0.82843 -1.62695,1.14844 -0.319,0.17 -0.65581,0.30992 -1.00781,0.41992 -0.305,0.1 -0.6235,0.10156 -0.9375,0.10156 -0.365,0 -0.73475,-0.20156 -1.09375,-0.10156 -0.664,0.12 -1.38252,0.33054 -1.85352,0.81054 -0.593,0.61 -0.7197,1.54961 -0.9707,2.34961 -0.12,0.39 -0.16391,0.79969 -0.25391,1.17969 -0.104,0.43 -0.3057,0.86055 -0.3457,1.31055 -0.051,0.55 0.077,1.10992 0.12695,1.66992 0.11,1.2 0.30891,2.39961 0.37891,3.59961 0.07,1.19 3.1e-4,2.39984 0.0703,3.58984 0.085,1.5 0.54371,2.83172 0.72071,4.26172 0.04,0.32 0.0401,0.64852 0.0801,0.97852 0.0281,0.19834 0.0524,0.37029 0.0762,0.54882 A 196.99738,196.99738 0 0 0 648.04492,322.36328 196.99738,196.99738 0 0 0 451.04688,125.36523 Z"
       transform="matrix(1.0325665,0,0,1.0325665,42546.967,-248223.59)"
       id="circle4757"
       inkscape:connector-curvature="0" />
  </g>
  <g
     inkscape:groupmode="layer"
     id="layer4"
     inkscape:label="stars"
     sodipodi:insensitive="true"
     transform="translate(4.0999999e-4,-0.00391)">
    <circle
       style="color:#000000;clip-rule:nonzero;display:inline;overflow:visible;visibility:visible;opacity:1;isolation:auto;mix-blend-mode:normal;color-interpolation:sRGB;color-interpolation-filters:linearRGB;solid-color:#000000;solid-opacity:1;fill:#ffffff;fill-opacity:1;fill-rule:nonzero;stroke:none;stroke-width:1;stroke-linecap:round;stroke-linejoin:round;stroke-miterlimit:4;stroke-dasharray:none;stroke-dashoffset:0;stroke-opacity:1;color-rendering:auto;image-rendering:auto;shape-rendering:auto;text-rendering:auto;enable-background:accumulate"
       id="path5026"
       cx="340.4725"
       cy="202.05063"
       r="1.9741509" />
    <circle
       r="1.9741509"
       cy="184.17563"
       cx="460.285"
       id="circle4186"
       style="color:#000000;clip-rule:nonzero;display:inline;overflow:visible;visibility:visible;opacity:1;isolation:auto;mix-blend-mode:normal;color-interpolation:sRGB;color-interpolation-filters:linearRGB;solid-color:#000000;solid-opacity:1;fill:#ffffff;fill-opacity:1;fill-rule:nonzero;stroke:none;stroke-width:1;stroke-linecap:round;stroke-linejoin:round;stroke-miterlimit:4;stroke-dasharray:none;stroke-dashoffset:0;stroke-opacity:1;color-rendering:auto;image-rendering:auto;shape-rendering:auto;text-rendering:auto;enable-background:accumulate" />
    <circle
       style="color:#000000;clip-rule:nonzero;display:inline;overflow:visible;visibility:visible;opacity:1;isolation:auto;mix-blend-mode:normal;color-interpolation:sRGB;color-interpolation-filters:linearRGB;solid-color:#000000;solid-opacity:1;fill:#ffffff;fill-opacity:1;fill-rule:nonzero;stroke:none;stroke-width:1;stroke-linecap:round;stroke-linejoin:round;stroke-miterlimit:4;stroke-dasharray:none;stroke-dashoffset:0;stroke-opacity:1;color-rendering:auto;image-rendering:auto;shape-rendering:auto;text-rendering:auto;enable-background:accumulate"
       id="circle4188"
       cx="331.5975"
       cy="308.05063"
       r="1.9741509" />
    <circle
       r="1.9741509"
       cy="284.05063"
       cx="471.535"
       id="circle4190"
       style="color:#000000;clip-rule:nonzero;display:inline;overflow:visible;visibility:visible;opacity:1;isolation:auto;mix-blend-mode:normal;color-interpolation:sRGB;color-interpolation-filters:linearRGB;solid-color:#000000;solid-opacity:1;fill:#ffffff;fill-opacity:0.56451613;fill-rule:nonzero;stroke:none;stroke-width:1;stroke-linecap:round;stroke-linejoin:round;stroke-miterlimit:4;stroke-dasharray:none;stroke-dashoffset:0;stroke-opacity:1;color-rendering:auto;image-rendering:auto;shape-rendering:auto;text-rendering:auto;enable-background:accumulate" />
    <circle
       style="color:#000000;clip-rule:nonzero;display:inline;overflow:visible;visibility:visible;opacity:1;isolation:auto;mix-blend-mode:normal;color-interpolation:sRGB;color-interpolation-filters:linearRGB;solid-color:#000000;solid-opacity:1;fill:#ffffff;fill-opacity:1;fill-rule:nonzero;stroke:none;stroke-width:1;stroke-linecap:round;stroke-linejoin:round;stroke-miterlimit:4;stroke-dasharray:none;stroke-dashoffset:0;stroke-opacity:1;color-rendering:auto;image-rendering:auto;shape-rendering:auto;text-rendering:auto;enable-background:accumulate"
       id="circle4192"
       cx="574.34753"
       cy="236.92563"
       r="1.9741509" />
    <circle
       r="1.9741509"
       cy="176.05063"
       cx="521.59753"
       id="circle4194"
       style="color:#000000;clip-rule:nonzero;display:inline;overflow:visible;visibility:visible;opacity:1;isolation:auto;mix-blend-mode:normal;color-interpolation:sRGB;color-interpolation-filters:linearRGB;solid-color:#000000;solid-opacity:1;fill:#ffffff;fill-opacity:1;fill-rule:nonzero;stroke:none;stroke-width:1;stroke-linecap:round;stroke-linejoin:round;stroke-miterlimit:4;stroke-dasharray:none;stroke-dashoffset:0;stroke-opacity:1;color-rendering:auto;image-rendering:auto;shape-rendering:auto;text-rendering:auto;enable-background:accumulate" />
    <circle
       style="color:#000000;clip-rule:nonzero;display:inline;overflow:visible;visibility:visible;opacity:1;isolation:auto;mix-blend-mode:normal;color-interpolation:sRGB;color-interpolation-filters:linearRGB;solid-color:#000000;solid-opacity:1;fill:#ffffff;fill-opacity:1;fill-rule:nonzero;stroke:none;stroke-width:1;stroke-linecap:round;stroke-linejoin:round;stroke-miterlimit:4;stroke-dasharray:none;stroke-dashoffset:0;stroke-opacity:1;color-rendering:auto;image-rendering:auto;shape-rendering:auto;text-rendering:auto;enable-background:accumulate"
       id="circle4196"
       cx="675.4082"
       cy="199.09917"
       r="1.4907771" />
    <circle
       r="1.1455101"
       cy="254.05063"
       cx="661.59753"
       id="circle4198"
       style="color:#000000;clip-rule:nonzero;display:inline;overflow:visible;visibility:visible;opacity:1;isolation:auto;mix-blend-mode:normal;color-interpolation:sRGB;color-interpolation-filters:linearRGB;solid-color:#000000;solid-opacity:1;fill:#ffffff;fill-opacity:0.56989249;fill-rule:nonzero;stroke:none;stroke-width:1;stroke-linecap:round;stroke-linejoin:round;stroke-miterlimit:4;stroke-dasharray:none;stroke-dashoffset:0;stroke-opacity:1;color-rendering:auto;image-rendering:auto;shape-rendering:auto;text-rendering:auto;enable-background:accumulate" />
    <circle
       style="color:#000000;clip-rule:nonzero;display:inline;overflow:visible;visibility:visible;opacity:1;isolation:auto;mix-blend-mode:normal;color-interpolation:sRGB;color-interpolation-filters:linearRGB;solid-color:#000000;solid-opacity:1;fill:#ffffff;fill-opacity:0.71505372;fill-rule:nonzero;stroke:none;stroke-width:1;stroke-linecap:round;stroke-linejoin:round;stroke-miterlimit:4;stroke-dasharray:none;stroke-dashoffset:0;stroke-opacity:1;color-rendering:auto;image-rendering:auto;shape-rendering:auto;text-rendering:auto;enable-background:accumulate"
       id="circle4200"
       cx="779.5412"
       cy="285.89722"
       r="1.9741509" />
    <circle
       r="1.3882134"
       cy="348.05063"
       cx="833.59753"
       id="circle4202"
       style="color:#000000;clip-rule:nonzero;display:inline;overflow:visible;visibility:visible;opacity:1;isolation:auto;mix-blend-mode:normal;color-interpolation:sRGB;color-interpolation-filters:linearRGB;solid-color:#000000;solid-opacity:1;fill:#ffffff;fill-opacity:0.73655916;fill-rule:nonzero;stroke:none;stroke-width:1;stroke-linecap:round;stroke-linejoin:round;stroke-miterlimit:4;stroke-dasharray:none;stroke-dashoffset:0;stroke-opacity:1;color-rendering:auto;image-rendering:auto;shape-rendering:auto;text-rendering:auto;enable-background:accumulate" />
    <circle
       style="color:#000000;clip-rule:nonzero;display:inline;overflow:visible;visibility:visible;opacity:1;isolation:auto;mix-blend-mode:normal;color-interpolation:sRGB;color-interpolation-filters:linearRGB;solid-color:#000000;solid-opacity:1;fill:#ffffff;fill-opacity:1;fill-rule:nonzero;stroke:none;stroke-width:1;stroke-linecap:round;stroke-linejoin:round;stroke-miterlimit:4;stroke-dasharray:none;stroke-dashoffset:0;stroke-opacity:1;color-rendering:auto;image-rendering:auto;shape-rendering:auto;text-rendering:auto;enable-background:accumulate"
       id="circle4204"
       cx="834.33929"
       cy="247.32442"
       r="1.4907771" />
    <circle
       r="1.9741509"
       cy="216.05063"
       cx="757.59753"
       id="circle4206"
       style="color:#000000;clip-rule:nonzero;display:inline;overflow:visible;visibility:visible;opacity:1;isolation:auto;mix-blend-mode:normal;color-interpolation:sRGB;color-interpolation-filters:linearRGB;solid-color:#000000;solid-opacity:1;fill:#ffffff;fill-opacity:1;fill-rule:nonzero;stroke:none;stroke-width:1;stroke-linecap:round;stroke-linejoin:round;stroke-miterlimit:4;stroke-dasharray:none;stroke-dashoffset:0;stroke-opacity:1;color-rendering:auto;image-rendering:auto;shape-rendering:auto;text-rendering:auto;enable-background:accumulate" />
    <circle
       style="color:#000000;clip-rule:nonzero;display:inline;overflow:visible;visibility:visible;opacity:1;isolation:auto;mix-blend-mode:normal;color-interpolation:sRGB;color-interpolation-filters:linearRGB;solid-color:#000000;solid-opacity:1;fill:#ffffff;fill-opacity:0.75268818;fill-rule:nonzero;stroke:none;stroke-width:1;stroke-linecap:round;stroke-linejoin:round;stroke-miterlimit:4;stroke-dasharray:none;stroke-dashoffset:0;stroke-opacity:1;color-rendering:auto;image-rendering:auto;shape-rendering:auto;text-rendering:auto;enable-background:accumulate"
       id="circle4208"
       cx="721.59753"
       cy="142.05063"
       r="1.8360441" />
    <circle
       r="1.2905571"
       cy="116.05063"
       cx="570.62097"
       id="circle4210"
       style="color:#000000;clip-rule:nonzero;display:inline;overflow:visible;visibility:visible;opacity:1;isolation:auto;mix-blend-mode:normal;color-interpolation:sRGB;color-interpolation-filters:linearRGB;solid-color:#000000;solid-opacity:1;fill:#ffffff;fill-opacity:1;fill-rule:nonzero;stroke:none;stroke-width:1;stroke-linecap:round;stroke-linejoin:round;stroke-miterlimit:4;stroke-dasharray:none;stroke-dashoffset:0;stroke-opacity:1;color-rendering:auto;image-rendering:auto;shape-rendering:auto;text-rendering:auto;enable-background:accumulate" />
    <circle
       style="color:#000000;clip-rule:nonzero;display:inline;overflow:visible;visibility:visible;opacity:1;isolation:auto;mix-blend-mode:normal;color-interpolation:sRGB;color-interpolation-filters:linearRGB;solid-color:#000000;solid-opacity:1;fill:#ffffff;fill-opacity:1;fill-rule:nonzero;stroke:none;stroke-width:1;stroke-linecap:round;stroke-linejoin:round;stroke-miterlimit:4;stroke-dasharray:none;stroke-dashoffset:0;stroke-opacity:1;color-rendering:auto;image-rendering:auto;shape-rendering:auto;text-rendering:auto;enable-background:accumulate"
       id="circle4212"
       cx="407.59753"
       cy="160.05063"
       r="1.2836169" />
    <circle
       r="1.9741509"
       cy="262.05063"
       cx="285.59753"
       id="circle4214"
       style="color:#000000;clip-rule:nonzero;display:inline;overflow:visible;visibility:visible;opacity:1;isolation:auto;mix-blend-mode:normal;color-interpolation:sRGB;color-interpolation-filters:linearRGB;solid-color:#000000;solid-opacity:1;fill:#ffffff;fill-opacity:0.50537636;fill-rule:nonzero;stroke:none;stroke-width:1;stroke-linecap:round;stroke-linejoin:round;stroke-miterlimit:4;stroke-dasharray:none;stroke-dashoffset:0;stroke-opacity:1;color-rendering:auto;image-rendering:auto;shape-rendering:auto;text-rendering:auto;enable-background:accumulate" />
    <circle
       style="color:#000000;clip-rule:nonzero;display:inline;overflow:visible;visibility:visible;opacity:1;isolation:auto;mix-blend-mode:normal;color-interpolation:sRGB;color-interpolation-filters:linearRGB;solid-color:#000000;solid-opacity:1;fill:#ffffff;fill-opacity:1;fill-rule:nonzero;stroke:none;stroke-width:1;stroke-linecap:round;stroke-linejoin:round;stroke-miterlimit:4;stroke-dasharray:none;stroke-dashoffset:0;stroke-opacity:1;color-rendering:auto;image-rendering:auto;shape-rendering:auto;text-rendering:auto;enable-background:accumulate"
       id="circle4216"
       cx="257.53488"
       cy="333.42578"
       r="1.474" />
    <circle
       r="1.9741509"
       cy="359.05063"
       cx="300.09753"
       id="circle4218"
       style="color:#000000;clip-rule:nonzero;display:inline;overflow:visible;visibility:visible;opacity:1;isolation:auto;mix-blend-mode:normal;color-interpolation:sRGB;color-interpolation-filters:linearRGB;solid-color:#000000;solid-opacity:1;fill:#ffffff;fill-opacity:1;fill-rule:nonzero;stroke:none;stroke-width:1;stroke-linecap:round;stroke-linejoin:round;stroke-miterlimit:4;stroke-dasharray:none;stroke-dashoffset:0;stroke-opacity:1;color-rendering:auto;image-rendering:auto;shape-rendering:auto;text-rendering:auto;enable-background:accumulate" />
    <circle
       style="color:#000000;clip-rule:nonzero;display:inline;overflow:visible;visibility:visible;opacity:1;isolation:auto;mix-blend-mode:normal;color-interpolation:sRGB;color-interpolation-filters:linearRGB;solid-color:#000000;solid-opacity:1;fill:#ffffff;fill-opacity:1;fill-rule:nonzero;stroke:none;stroke-width:1;stroke-linecap:round;stroke-linejoin:round;stroke-miterlimit:4;stroke-dasharray:none;stroke-dashoffset:0;stroke-opacity:1;color-rendering:auto;image-rendering:auto;shape-rendering:auto;text-rendering:auto;enable-background:accumulate"
       id="circle4220"
       cx="393.59753"
       cy="332.05063"
       r="1.4217237" />
    <circle
       r="1.9741509"
       cy="310.05063"
       cx="895.59753"
       id="circle4222"
       style="color:#000000;clip-rule:nonzero;display:inline;overflow:visible;visibility:visible;opacity:1;isolation:auto;mix-blend-mode:normal;color-interpolation:sRGB;color-interpolation-filters:linearRGB;solid-color:#000000;solid-opacity:1;fill:#ffffff;fill-opacity:1;fill-rule:nonzero;stroke:none;stroke-width:1;stroke-linecap:round;stroke-linejoin:round;stroke-miterlimit:4;stroke-dasharray:none;stroke-dashoffset:0;stroke-opacity:1;color-rendering:auto;image-rendering:auto;shape-rendering:auto;text-rendering:auto;enable-background:accumulate" />
    <circle
       style="color:#000000;clip-rule:nonzero;display:inline;overflow:visible;visibility:visible;opacity:1;isolation:auto;mix-blend-mode:normal;color-interpolation:sRGB;color-interpolation-filters:linearRGB;solid-color:#000000;solid-opacity:1;fill:#ffffff;fill-opacity:1;fill-rule:nonzero;stroke:none;stroke-width:1;stroke-linecap:round;stroke-linejoin:round;stroke-miterlimit:4;stroke-dasharray:none;stroke-dashoffset:0;stroke-opacity:1;color-rendering:auto;image-rendering:auto;shape-rendering:auto;text-rendering:auto;enable-background:accumulate"
       id="circle4224"
       cx="913.59753"
       cy="378.05063"
       r="1.632354" />
    <circle
       r="1.9741509"
       cy="182.05063"
       cx="809.59753"
       id="circle4226"
       style="color:#000000;clip-rule:nonzero;display:inline;overflow:visible;visibility:visible;opacity:1;isolation:auto;mix-blend-mode:normal;color-interpolation:sRGB;color-interpolation-filters:linearRGB;solid-color:#000000;solid-opacity:1;fill:#ffffff;fill-opacity:1;fill-rule:nonzero;stroke:none;stroke-width:1;stroke-linecap:round;stroke-linejoin:round;stroke-miterlimit:4;stroke-dasharray:none;stroke-dashoffset:0;stroke-opacity:1;color-rendering:auto;image-rendering:auto;shape-rendering:auto;text-rendering:auto;enable-background:accumulate" />
    <circle
       style="color:#000000;clip-rule:nonzero;display:inline;overflow:visible;visibility:visible;opacity:1;isolation:auto;mix-blend-mode:normal;color-interpolation:sRGB;color-interpolation-filters:linearRGB;solid-color:#000000;solid-opacity:1;fill:#ffffff;fill-opacity:0.7311828;fill-rule:nonzero;stroke:none;stroke-width:1;stroke-linecap:round;stroke-linejoin:round;stroke-miterlimit:4;stroke-dasharray:none;stroke-dashoffset:0;stroke-opacity:1;color-rendering:auto;image-rendering:auto;shape-rendering:auto;text-rendering:auto;enable-background:accumulate"
       id="circle4228"
       cx="629.59753"
       cy="150.05063"
       r="1.9741509" />
    <circle
       r="1.9741509"
       cy="315.73813"
       cx="732.78503"
       id="circle4230"
       style="color:#000000;clip-rule:nonzero;display:inline;overflow:visible;visibility:visible;opacity:1;isolation:auto;mix-blend-mode:normal;color-interpolation:sRGB;color-interpolation-filters:linearRGB;solid-color:#000000;solid-opacity:1;fill:#ffffff;fill-opacity:1;fill-rule:nonzero;stroke:none;stroke-width:1;stroke-linecap:round;stroke-linejoin:round;stroke-miterlimit:4;stroke-dasharray:none;stroke-dashoffset:0;stroke-opacity:1;color-rendering:auto;image-rendering:auto;shape-rendering:auto;text-rendering:auto;enable-background:accumulate" />
    <circle
       style="color:#000000;clip-rule:nonzero;display:inline;overflow:visible;visibility:visible;opacity:1;isolation:auto;mix-blend-mode:normal;color-interpolation:sRGB;color-interpolation-filters:linearRGB;solid-color:#000000;solid-opacity:1;fill:#ffffff;fill-opacity:1;fill-rule:nonzero;stroke:none;stroke-width:1;stroke-linecap:round;stroke-linejoin:round;stroke-miterlimit:4;stroke-dasharray:none;stroke-dashoffset:0;stroke-opacity:1;color-rendering:auto;image-rendering:auto;shape-rendering:auto;text-rendering:auto;enable-background:accumulate"
       id="circle4232"
       cx="490.97253"
       cy="229.36313"
       r="1.9741509" />
    <circle
       r="1.4858696"
       cy="270.05063"
       cx="385.59753"
       id="circle4234"
       style="color:#000000;clip-rule:nonzero;display:inline;overflow:visible;visibility:visible;opacity:1;isolation:auto;mix-blend-mode:normal;color-interpolation:sRGB;color-interpolation-filters:linearRGB;solid-color:#000000;solid-opacity:1;fill:#ffffff;fill-opacity:1;fill-rule:nonzero;stroke:none;stroke-width:1;stroke-linecap:round;stroke-linejoin:round;stroke-miterlimit:4;stroke-dasharray:none;stroke-dashoffset:0;stroke-opacity:1;color-rendering:auto;image-rendering:auto;shape-rendering:auto;text-rendering:auto;enable-background:accumulate" />
    <circle
       style="color:#000000;clip-rule:nonzero;display:inline;overflow:visible;visibility:visible;opacity:1;isolation:auto;mix-blend-mode:normal;color-interpolation:sRGB;color-interpolation-filters:linearRGB;solid-color:#000000;solid-opacity:1;fill:#ffffff;fill-opacity:0.48924734;fill-rule:nonzero;stroke:none;stroke-width:1;stroke-linecap:round;stroke-linejoin:round;stroke-miterlimit:4;stroke-dasharray:none;stroke-dashoffset:0;stroke-opacity:1;color-rendering:auto;image-rendering:auto;shape-rendering:auto;text-rendering:auto;enable-background:accumulate"
       id="circle4236"
       cx="414.03503"
       cy="217.73813"
       r="1.3393853" />
  </g>
</svg>
