<?xml version="1.0" encoding="UTF-8" standalone="no"?>
<!-- Created with Inkscape (http://www.inkscape.org/) -->

<svg
   xmlns:dc="http://purl.org/dc/elements/1.1/"
   xmlns:cc="http://creativecommons.org/ns#"
   xmlns:rdf="http://www.w3.org/1999/02/22-rdf-syntax-ns#"
   xmlns:svg="http://www.w3.org/2000/svg"
   xmlns="http://www.w3.org/2000/svg"
   xmlns:xlink="http://www.w3.org/1999/xlink"
   xmlns:sodipodi="http://sodipodi.sourceforge.net/DTD/sodipodi-0.dtd"
   xmlns:inkscape="http://www.inkscape.org/namespaces/inkscape"
   width="545.29834mm"
   height="619.18207mm"
   viewBox="0 0 1932.1595 2193.9521"
   id="svg2"
   version="1.1"
   inkscape:version="0.91 r13725"
   sodipodi:docname="dog.svg">
  <defs
     id="defs4">
    <linearGradient
       inkscape:collect="always"
       id="linearGradient4345">
      <stop
         style="stop-color:#f97474;stop-opacity:1;"
         offset="0"
         id="stop4347" />
      <stop
         id="stop4359"
         offset="0.47402474"
         style="stop-color:#f85a5a;stop-opacity:1" />
      <stop
         id="stop4357"
         offset="0.94804949"
         style="stop-color:#7c3a3a;stop-opacity:1;" />
      <stop
         style="stop-color:#000000;stop-opacity:1"
         offset="1"
         id="stop4349" />
    </linearGradient>
    <radialGradient
       inkscape:collect="always"
       xlink:href="#linearGradient4345"
       id="radialGradient4351"
       cx="462.99997"
       cy="556.86218"
       fx="462.99997"
       fy="556.86218"
       r="966.07977"
       gradientTransform="matrix(2.5851144,-1.0606628e-8,0,2.2937443,-733.90796,-720.43721)"
       gradientUnits="userSpaceOnUse" />
  </defs>
  <sodipodi:namedview
     id="base"
     pagecolor="#ffffff"
     bordercolor="#666666"
     borderopacity="1.0"
     inkscape:pageopacity="0.0"
     inkscape:pageshadow="2"
     inkscape:zoom="0.125"
     inkscape:cx="1439.5256"
     inkscape:cy="1457.8724"
     inkscape:document-units="px"
     inkscape:current-layer="layer1"
     showgrid="false"
     inkscape:snap-bbox="true"
     inkscape:snap-bbox-edge-midpoints="false"
     showguides="true"
     inkscape:guide-bbox="true"
     inkscape:window-width="1366"
     inkscape:window-height="714"
     inkscape:window-x="0"
     inkscape:window-y="0"
     inkscape:window-maximized="1"
     inkscape:object-paths="false"
     inkscape:object-nodes="false"
     inkscape:snap-intersection-paths="false"
     inkscape:snap-smooth-nodes="false"
     fit-margin-top="0"
     fit-margin-left="0"
     fit-margin-right="0"
     fit-margin-bottom="0" />
  <metadata
     id="metadata7">
    <rdf:RDF>
      <cc:Work
         rdf:about="">
        <dc:format>image/svg+xml</dc:format>
        <dc:type
           rdf:resource="http://purl.org/dc/dcmitype/StillImage" />
        <dc:title></dc:title>
      </cc:Work>
    </rdf:RDF>
  </metadata>
  <g
     inkscape:label="Capa 1"
     inkscape:groupmode="layer"
     id="layer1"
     transform="translate(503.0798,540.11389)">
    <rect
       style="color:#000000;clip-rule:nonzero;display:inline;overflow:visible;visibility:visible;opacity:1;isolation:auto;mix-blend-mode:normal;color-interpolation:sRGB;color-interpolation-filters:linearRGB;solid-color:#000000;solid-opacity:1;fill:url(#radialGradient4351);fill-opacity:1;fill-rule:nonzero;stroke:none;stroke-width:15;stroke-linecap:butt;stroke-linejoin:round;stroke-miterlimit:4;stroke-dasharray:none;stroke-dashoffset:0;stroke-opacity:1;color-rendering:auto;image-rendering:auto;shape-rendering:auto;text-rendering:auto;enable-background:accumulate"
       id="rect4292"
       width="1932.1595"
       height="2193.9524"
       x="-503.0798"
       y="-540.11401" />
    <path
       inkscape:connector-curvature="0"
       style="color:#000000;font-style:normal;font-variant:normal;font-weight:normal;font-stretch:normal;font-size:medium;line-height:normal;font-family:sans-serif;text-indent:0;text-align:start;text-decoration:none;text-decoration-line:none;text-decoration-style:solid;text-decoration-color:#000000;letter-spacing:normal;word-spacing:normal;text-transform:none;direction:ltr;block-progression:tb;writing-mode:lr-tb;baseline-shift:baseline;text-anchor:start;white-space:normal;clip-rule:nonzero;display:inline;overflow:visible;visibility:visible;opacity:1;isolation:auto;mix-blend-mode:normal;color-interpolation:sRGB;color-interpolation-filters:linearRGB;solid-color:#000000;solid-opacity:1;fill:#ffffff;fill-opacity:1;fill-rule:nonzero;stroke:none;stroke-width:15;stroke-linecap:round;stroke-linejoin:round;stroke-miterlimit:4;stroke-dasharray:none;stroke-dashoffset:0;stroke-opacity:1;color-rendering:auto;image-rendering:auto;shape-rendering:auto;text-rendering:auto;enable-background:accumulate"
       d="m 179.60748,44.244234 0,205.049966 0,50.73315 c 23.97709,23.62739 42.48907,52.78104 53.4913,85.35624 l 0,-136.08939 0,-205.049966 -53.4913,0 z M 895.4924,249.32205 c -97.202,1.53471 -177.91409,71.11861 -197.31881,162.57735 l 52.46744,74.92961 c -2.15527,-9.95708 -3.34998,-20.28514 -3.4616,-30.88983 -0.88093,-83.69926 65.46229,-151.8114 149.15574,-153.13278 80.86928,-1.2768 147.50653,60.28851 153.50193,139.94104 a 11.620002,11.620002 0 0 1 0.4527,-0.0214 l 53.1013,0 C 1097.2273,333.68129 1005.5396,247.58462 895.4924,249.32205 Z M 611.03434,421.21859 c 2.35651,10.65999 3.6357,21.73216 3.6357,33.12559 0,84.02035 -67.53836,151.55867 -151.55868,151.55867 -84.02035,0 -151.55867,-67.53832 -151.55867,-151.55867 0,-10.97035 1.17495,-21.64679 3.3641,-31.94155 l -52.32119,74.72068 c 19.77419,92.51266 102.25339,162.27084 200.51576,162.27084 98.47527,0 181.10374,-70.05809 200.64811,-162.86984 l -52.72513,-75.30572 z"
       id="path3336" />
    <path
       sodipodi:type="inkscape:offset"
       inkscape:radius="0"
       inkscape:original="M 312.14258 470.57617 C 280.47504 470.57617 254.64258 496.40863 254.64258 528.07617 C 254.64258 528.97142 254.66778 529.8625 254.70898 530.75 C 254.72368 531.067 254.74778 531.3816 254.76758 531.69727 C 254.80288 532.25833 254.84498 532.81757 254.89648 533.375 C 254.92988 533.7373 254.96578 534.09863 255.00586 534.45898 C 255.06596 534.99755 255.13584 535.53364 255.21094 536.06836 C 255.26024 536.41969 255.30574 536.77179 255.36133 537.12109 C 255.48894 537.92171 255.63034 538.717 255.79102 539.50781 C 255.79502 539.52921 255.79803 539.55087 255.80273 539.57227 C 255.84093 539.75915 255.88773 539.94267 255.92773 540.12891 C 256.07023 540.79236 256.22133 541.45358 256.38672 542.10938 C 256.46872 542.43412 256.55897 542.75558 256.64648 543.07812 C 256.78313 543.58249 256.92613 544.08463 257.07617 544.58398 C 257.1806 544.93083 257.28569 545.27701 257.39648 545.62109 C 257.58297 546.20166 257.78189 546.77651 257.98633 547.34961 C 258.05953 547.55434 258.12763 547.76118 258.20312 547.96484 C 258.83204 549.66647 259.54137 551.33175 260.32422 552.95898 C 260.32822 552.96698 260.33224 552.97598 260.33594 552.98438 C 260.73653 553.81602 261.16026 554.63511 261.59961 555.44531 C 268.55261 568.26725 280.28617 578.32356 294.85156 582.91602 C 294.90796 582.93382 294.96508 582.94724 295.02148 582.96484 C 295.14175 583.00254 295.26417 583.03534 295.38477 583.07227 C 296.09524 583.28877 296.80767 583.4919 297.52148 583.67969 C 297.79043 583.75069 298.06158 583.81568 298.33203 583.88281 C 298.91873 584.02807 299.50544 584.16489 300.09375 584.29102 C 300.4055 584.35792 300.71767 584.42253 301.03125 584.48438 C 301.59448 584.59533 302.1585 584.6954 302.72266 584.78906 C 303.03977 584.84176 303.35501 584.89984 303.67383 584.94727 C 304.50408 585.07079 305.33514 585.17905 306.16602 585.26562 C 306.17102 585.26611 306.17499 585.26658 306.17969 585.26758 C 306.39529 585.28998 306.61379 585.30227 306.83008 585.32227 C 307.49509 585.38377 308.15964 585.43653 308.82422 585.47461 C 309.15775 585.49371 309.49312 585.50418 309.82812 585.51758 C 310.39769 585.54018 310.96652 585.55495 311.53516 585.56055 C 311.73836 585.56255 311.93889 585.57617 312.14258 585.57617 C 312.27684 585.57617 312.40892 585.56741 312.54297 585.56641 C 313.11361 585.56241 313.68283 585.54484 314.25195 585.52344 C 314.96451 585.49744 315.67305 585.45614 316.37891 585.4043 C 316.7717 585.3749 317.16495 585.35185 317.55664 585.31445 C 318.1343 585.26005 318.70664 585.18868 319.2793 585.11719 C 319.50205 585.08909 319.72496 585.06185 319.94727 585.03125 C 320.57515 584.94535 321.19895 584.84832 321.82031 584.74219 C 321.93505 584.72249 322.04947 584.70204 322.16406 584.68164 C 324.25341 584.31157 326.30449 583.83067 328.31055 583.24023 C 328.38395 583.21873 328.45797 583.19953 328.53125 583.17773 C 329.11056 583.00469 329.68428 582.81963 330.25586 582.62891 C 330.51184 582.54391 330.76672 582.45577 331.02148 582.36719 C 331.47405 582.209 331.92566 582.04999 332.37305 581.88086 C 332.86188 581.69714 333.34629 581.50164 333.83008 581.30469 C 334.10057 581.19385 334.37415 581.08944 334.64258 580.97461 C 344.32282 576.86129 352.91924 570.08953 359.24414 561.05664 L 399.40625 503.69922 C 407.36408 492.33425 420.34665 485.57617 434.2207 485.57617 C 448.09476 485.57617 461.07732 492.33425 469.03516 503.69922 L 509.19727 561.05664 C 523.57391 581.58861 549.68501 590.45318 573.58984 582.91602 C 583.51225 579.78749 592.1179 574.12036 598.79883 566.77539 L 598.79883 585.57422 L 598.79883 643.07422 C 598.79883 661.65377 586.79779 678.02044 569.07812 683.60742 C 551.35849 689.19439 532.14113 682.67065 521.48438 667.45117 L 509.19727 676.05469 C 523.57391 696.58666 549.68501 705.45122 573.58984 697.91406 C 597.49466 690.37689 613.79883 668.13912 613.79883 643.07422 L 613.79883 585.57422 L 613.79883 528.07617 L 598.79883 528.07617 C 598.79883 546.65572 586.79778 563.02237 569.07812 568.60938 C 551.35849 574.19633 532.14115 567.67262 521.48438 552.45312 L 481.32227 495.0957 C 470.56634 479.73463 452.97311 470.57617 434.2207 470.57617 C 415.4683 470.57617 397.87508 479.73463 387.11914 495.0957 L 369.1582 520.74609 C 365.53671 492.51973 341.32599 470.57617 312.14258 470.57617 z M 312.14258 485.57617 C 335.70351 485.57617 354.64258 504.51524 354.64258 528.07617 C 354.64258 536.57596 352.16764 544.46725 347.91016 551.0918 L 346.95703 552.45312 C 340.66785 561.43502 331.39575 567.38466 321.21094 569.60742 C 321.14894 569.62092 321.08746 569.63709 321.02539 569.65039 C 321.01839 569.65139 321.01101 569.6523 321.00391 569.6543 C 320.71545 569.7157 320.42461 569.76682 320.13477 569.82227 C 319.71699 569.90107 319.29905 569.97836 318.87695 570.04492 C 318.72794 570.06882 318.57901 570.09098 318.42969 570.11328 C 317.79121 570.20708 317.14956 570.29213 316.50195 570.35742 C 315.069 570.50189 313.61514 570.57617 312.14258 570.57617 C 311.41023 570.57617 310.68197 570.55768 309.95898 570.52148 C 309.95298 570.52114 309.94595 570.52183 309.93945 570.52148 C 309.22251 570.48528 308.51158 570.43028 307.80469 570.35938 C 307.79769 570.35865 307.7903 570.35842 307.7832 570.35742 C 307.7812 570.35722 307.77934 570.35762 307.77734 570.35742 C 307.17368 570.29652 306.57622 570.21461 305.98047 570.12891 C 305.45653 570.05161 304.93341 569.96649 304.41016 569.86914 C 304.39586 569.86614 304.38159 569.86433 304.36719 569.86133 C 302.69183 569.54787 301.02066 569.13194 299.36328 568.60938 C 283.88002 563.7275 272.76459 550.61562 270.20508 534.98828 C 270.20108 534.96278 270.19511 534.93761 270.19141 534.91211 C 270.13301 534.55164 270.08632 534.18728 270.03711 533.82422 C 269.99461 533.50659 269.95151 533.18901 269.91602 532.86914 C 269.88322 532.57777 269.85503 532.28505 269.82812 531.99219 C 269.79212 531.59456 269.76133 531.19572 269.73633 530.79492 C 269.72033 530.54315 269.70291 530.2918 269.69141 530.03906 C 269.66211 529.38826 269.64258 528.7345 269.64258 528.07617 C 269.64258 504.51524 288.58164 485.57617 312.14258 485.57617 z "
       style="color:#000000;font-style:normal;font-variant:normal;font-weight:normal;font-stretch:normal;font-size:medium;line-height:normal;font-family:sans-serif;text-indent:0;text-align:start;text-decoration:none;text-decoration-line:none;text-decoration-style:solid;text-decoration-color:#000000;letter-spacing:normal;word-spacing:normal;text-transform:none;direction:ltr;block-progression:tb;writing-mode:lr-tb;baseline-shift:baseline;text-anchor:start;white-space:normal;clip-rule:nonzero;display:inline;overflow:visible;visibility:visible;opacity:1;isolation:auto;mix-blend-mode:normal;color-interpolation:sRGB;color-interpolation-filters:linearRGB;solid-color:#000000;solid-opacity:1;fill:#ffffff;fill-opacity:1;fill-rule:nonzero;stroke:none;stroke-width:15;stroke-linecap:butt;stroke-linejoin:round;stroke-miterlimit:4;stroke-dasharray:none;stroke-dashoffset:0;stroke-opacity:1;color-rendering:auto;image-rendering:auto;shape-rendering:auto;text-rendering:auto;enable-background:accumulate"
       id="path4287"
       d="m 312.14258,470.57617 c -31.66754,0 -57.5,25.83246 -57.5,57.5 0,0.89525 0.0252,1.78633 0.0664,2.67383 0.0147,0.317 0.0388,0.6316 0.0586,0.94727 0.0353,0.56106 0.0774,1.1203 0.1289,1.67773 0.0334,0.3623 0.0693,0.72363 0.10938,1.08398 0.0601,0.53857 0.12998,1.07466 0.20508,1.60938 0.0493,0.35133 0.0948,0.70343 0.15039,1.05273 0.12761,0.80062 0.26901,1.59591 0.42969,2.38672 0.004,0.0214 0.007,0.0431 0.0117,0.0645 0.0382,0.18688 0.085,0.3704 0.125,0.55664 0.1425,0.66345 0.2936,1.32467 0.45899,1.98047 0.082,0.32474 0.17225,0.6462 0.25976,0.96874 0.13665,0.50437 0.27965,1.00651 0.42969,1.50586 0.10443,0.34685 0.20952,0.69303 0.32031,1.03711 0.18649,0.58057 0.38541,1.15542 0.58985,1.72852 0.0732,0.20473 0.1413,0.41157 0.21679,0.61523 0.62892,1.70163 1.33825,3.36691 2.1211,4.99414 0.004,0.008 0.008,0.017 0.0117,0.0254 0.40059,0.83164 0.82432,1.65073 1.26367,2.46093 6.953,12.82194 18.68656,22.87825 33.25195,27.47071 0.0564,0.0178 0.11352,0.0312 0.16992,0.0488 0.12027,0.0377 0.24269,0.0705 0.36329,0.10743 0.71047,0.2165 1.4229,0.41963 2.13671,0.60742 0.26895,0.071 0.5401,0.13599 0.81055,0.20312 0.5867,0.14526 1.17341,0.28208 1.76172,0.40821 0.31175,0.0669 0.62392,0.13151 0.9375,0.19336 0.56323,0.11095 1.12725,0.21102 1.69141,0.30468 0.31711,0.0527 0.63235,0.11078 0.95117,0.15821 0.83025,0.12352 1.66131,0.23178 2.49219,0.31835 0.005,4.9e-4 0.009,9.6e-4 0.0137,0.002 0.2156,0.0224 0.4341,0.0347 0.65039,0.0547 0.66501,0.0615 1.32956,0.11426 1.99414,0.15234 0.33353,0.0191 0.6689,0.0296 1.0039,0.043 0.56957,0.0226 1.1384,0.0374 1.70704,0.043 0.2032,0.002 0.40373,0.0156 0.60742,0.0156 0.13426,0 0.26634,-0.009 0.40039,-0.01 0.57064,-0.004 1.13986,-0.0216 1.70898,-0.043 0.71256,-0.026 1.4211,-0.0673 2.12696,-0.11914 0.39279,-0.0294 0.78604,-0.0525 1.17773,-0.0899 0.57766,-0.0544 1.15,-0.12577 1.72266,-0.19726 0.22275,-0.0281 0.44566,-0.0553 0.66797,-0.0859 0.62788,-0.0859 1.25168,-0.18293 1.87304,-0.28906 0.11474,-0.0197 0.22916,-0.0402 0.34375,-0.0606 2.08935,-0.37007 4.14043,-0.85097 6.14649,-1.44141 0.0734,-0.0215 0.14742,-0.0407 0.2207,-0.0625 0.57931,-0.17304 1.15303,-0.3581 1.72461,-0.54882 0.25598,-0.085 0.51086,-0.17314 0.76562,-0.26172 0.45257,-0.15819 0.90418,-0.3172 1.35157,-0.48633 0.48883,-0.18372 0.97324,-0.37922 1.45703,-0.57617 0.27049,-0.11084 0.54407,-0.21525 0.8125,-0.33008 9.68024,-4.11332 18.27666,-10.88508 24.60156,-19.91797 l 40.16211,-57.35742 c 7.95783,-11.36497 20.9404,-18.12305 34.81445,-18.12305 13.87406,0 26.85662,6.75808 34.81446,18.12305 l 40.16211,57.35742 c 14.37664,20.53197 40.48774,29.39654 64.39257,21.85938 9.92241,-3.12853 18.52806,-8.79566 25.20899,-16.14063 l 0,18.79883 0,57.5 c 0,18.57955 -12.00104,34.94622 -29.72071,40.5332 -17.71963,5.58697 -36.93699,-0.93677 -47.59374,-16.15625 l -12.28711,8.60352 c 14.37664,20.53197 40.48774,29.39653 64.39257,21.85937 23.90482,-7.53717 40.20899,-29.77494 40.20899,-54.83984 l 0,-57.5 0,-57.49805 -15,0 c 0,18.57955 -12.00105,34.9462 -29.72071,40.53321 -17.71963,5.58695 -36.93697,-0.93676 -47.59374,-16.15626 L 481.32227,495.0957 c -10.75593,-15.36107 -28.34916,-24.51953 -47.10157,-24.51953 -18.7524,0 -36.34562,9.15846 -47.10156,24.51953 l -17.96094,25.65039 c -3.62149,-28.22636 -27.83221,-50.16992 -57.01562,-50.16992 z m 0,15 c 23.56093,0 42.5,18.93907 42.5,42.5 0,8.49979 -2.47494,16.39108 -6.73242,23.01563 l -0.95313,1.36132 c -6.28918,8.9819 -15.56128,14.93154 -25.74609,17.1543 -0.062,0.0135 -0.12348,0.0297 -0.18555,0.043 -0.007,10e-4 -0.0144,0.002 -0.0215,0.004 -0.28846,0.0614 -0.5793,0.11252 -0.86914,0.16797 -0.41778,0.0788 -0.83572,0.15609 -1.25782,0.22265 -0.14901,0.0239 -0.29794,0.0461 -0.44726,0.0684 -0.63848,0.0938 -1.28013,0.17885 -1.92774,0.24414 -1.43295,0.14447 -2.88681,0.21875 -4.35937,0.21875 -0.73235,0 -1.46061,-0.0185 -2.1836,-0.0547 -0.006,-3.4e-4 -0.013,3.5e-4 -0.0195,0 -0.71694,-0.0362 -1.42787,-0.0912 -2.13476,-0.1621 -0.007,-7.3e-4 -0.0144,-9.6e-4 -0.0215,-0.002 -0.002,-2e-4 -0.004,2e-4 -0.006,0 -0.60366,-0.0609 -1.20112,-0.14281 -1.79687,-0.22851 -0.52394,-0.0773 -1.04706,-0.16242 -1.57031,-0.25977 -0.0143,-0.003 -0.0286,-0.005 -0.043,-0.008 -1.67536,-0.31346 -3.34653,-0.72939 -5.00391,-1.25195 -15.48326,-4.88188 -26.59869,-17.99376 -29.1582,-33.6211 -0.004,-0.0255 -0.01,-0.0507 -0.0137,-0.0762 -0.0584,-0.36047 -0.10509,-0.72483 -0.1543,-1.08789 -0.0425,-0.31763 -0.0856,-0.63521 -0.12109,-0.95508 -0.0328,-0.29137 -0.061,-0.58409 -0.0879,-0.87695 -0.036,-0.39763 -0.0668,-0.79647 -0.0918,-1.19727 -0.016,-0.25177 -0.0334,-0.50312 -0.0449,-0.75586 -0.0293,-0.6508 -0.0488,-1.30456 -0.0488,-1.96289 0,-23.56093 18.93906,-42.5 42.5,-42.5 z"
       transform="matrix(3.5660865,0,0,3.5660865,-1085.8586,-1428.9565)" />
    <path
       style="fill:#ffffff;fill-opacity:1"
       d="m 468.64648,407.5224 c -35.67485,0.10642 -44.11215,2.89009 -55.09375,18.17578 -4.60775,6.41362 -11.38742,12.8625 -15.06445,14.33008 -3.67703,1.46731 -18.92796,3.68185 -33.89258,4.91992 -14.96461,1.23807 -30.33321,3.77622 -34.15234,5.64062 -6.23587,3.04418 -6.90697,4.53269 -6.57422,14.59961 0.62793,18.98456 17.06936,48.36719 27.06445,48.36719 1.84074,0 2.81621,0.8593 2.16797,1.9082 -1.07592,1.7408 5.67242,1.25158 47.84961,-3.45898 11.3542,-1.26825 14.02734,-0.89211 14.02734,1.97461 0,2.55498 -2.88916,3.51486 -10.36914,3.44727 -5.70219,-0.0523 -19.14922,0.26154 -29.88281,0.69921 l -19.51562,0.79688 14.63671,4.95703 c 10.54729,3.5724 22.35495,5.14519 42.25782,5.62891 31.89891,0.77568 28.55066,-1.549 45.51367,31.61718 7.4459,14.55799 10.22367,21.17115 12.95117,36.00586 53.40978,-5.35299 98.42921,-38.16647 120.8457,-84.20898 -29.61337,-58.04263 -51.98173,-85.45549 -80.68359,-98.90625 -12.73985,-5.97022 -16.61831,-6.56964 -42.08594,-6.49414 z m 4.5586,12.6914 c 1.01588,0.009 0.0602,8.89598 -3.33789,26.6543 -5.47473,28.61019 -4.90534,42.71325 1.98632,49.1875 7.16146,6.72665 16.85349,6.76762 37.31836,0.15625 16.81391,-5.43212 18.10233,-6.87056 22.76758,-25.42187 1.36013,-5.40817 4.13635,-11.99483 6.16992,-14.63672 3.30861,-4.29942 3.31366,-3.85211 0.0488,4.26562 -2.00648,4.9882 -3.64648,12.79935 -3.64648,17.35742 0,11.88622 -7.40022,19.67986 -25.60157,26.9668 -21.00465,8.40845 -30.73334,8.28049 -40.59961,-0.53516 -10.77732,-9.62927 -11.75021,-25.15754 -3.59765,-57.38671 4.4895,-17.74814 7.4763,-26.6166 8.49219,-26.60743 z m -50.88086,15.78516 c 1.7132,0.0944 4.59885,1.51333 9.44531,4.0957 l 8.25195,4.39844 -10.08203,2.55859 -10.08203,2.5586 0,-7.0586 c 0,-4.6053 0.26411,-6.67409 2.4668,-6.55273 z m -81.37696,17.74023 c 0.28057,-0.007 0.44299,1.3708 0.56446,4.23243 0.1954,4.5677 -1.42129,7.51748 -5.20703,9.5039 -5.23987,2.74989 -5.30595,2.6703 -1.47071,-1.74414 2.20936,-2.54328 4.5514,-6.81868 5.20508,-9.50195 0.39946,-1.63977 0.68998,-2.48449 0.9082,-2.49024 z"
       id="path4313"
       inkscape:connector-curvature="0" />
  </g>
</svg>
